<svg width="172" height="239" viewBox="0 0 172 239" fill="none" xmlns="http://www.w3.org/2000/svg">
<path d="M160.737 0H11.5425C5.65694 0 0.885742 4.7712 0.885742 10.6568V228.055C0.885742 233.941 5.65694 238.712 11.5425 238.712H160.737C166.623 238.712 171.394 233.941 171.394 228.055V10.6568C171.394 4.7712 166.623 0 160.737 0Z" fill="#F9F1DF"/>
<path d="M32.9839 49.149C32.3818 48.5554 31.5702 48.2227 30.7247 48.2227C29.8792 48.2227 29.0676 48.5554 28.4655 49.149L27.1014 50.5343C27.3934 49.5781 27.956 48.7268 28.7212 48.0833C29.1609 47.644 29.463 47.0861 29.5906 46.4778C29.7182 45.8695 29.6657 45.2372 29.4396 44.6582C29.2134 44.0793 28.8234 43.5788 28.3173 43.2181C27.8112 42.8573 27.2109 42.6519 26.5899 42.627C25.9561 42.6233 25.3356 42.8081 24.8071 43.1578C24.2786 43.5075 23.8659 44.0064 23.6215 44.5911C23.3771 45.1758 23.312 45.82 23.4344 46.4417C23.5569 47.0635 23.8614 47.6349 24.3093 48.0833C25.088 48.7188 25.6595 49.5722 25.9505 50.5343L24.565 49.149C24.1169 48.7045 23.5472 48.4026 22.9278 48.2813C22.3083 48.1601 21.6668 48.2249 21.0842 48.4677C20.5015 48.7104 20.0037 49.1202 19.6536 49.6454C19.3034 50.1706 19.1166 50.7877 19.1166 51.4189C19.1166 52.05 19.3034 52.6671 19.6536 53.1923C20.0037 53.7175 20.5015 54.1273 21.0842 54.37C21.6668 54.6128 22.3083 54.6776 22.9278 54.5564C23.5472 54.4351 24.1169 54.1332 24.565 53.6887L26.1422 52.0902C26.205 53.0112 26.0848 53.9356 25.7885 54.8099C25.4922 55.6842 25.0257 56.4911 24.4158 57.1842V57.6957H28.6785V57.1842C28.0751 56.4921 27.614 55.6878 27.3215 54.8175C27.0289 53.9471 26.9106 53.0276 26.9735 52.1115V51.9837L28.5507 53.5822C29.1527 54.1814 29.9681 54.5169 30.8174 54.5149C31.6668 54.5129 32.4806 54.1735 33.0798 53.5715C33.679 52.9695 34.0145 52.1541 34.0125 51.3047C34.0105 50.4554 33.6711 49.6416 33.0691 49.0424L32.9839 49.149Z" fill="#1F1F1F"/>
<path d="M139.296 189.563C139.898 190.157 140.71 190.49 141.556 190.49C142.401 190.49 143.213 190.157 143.815 189.563L145.2 188.178C144.909 189.14 144.338 189.993 143.559 190.629C143.245 190.922 142.993 191.275 142.818 191.667C142.643 192.059 142.55 192.482 142.542 192.912C142.534 193.341 142.613 193.767 142.774 194.165C142.935 194.563 143.174 194.925 143.478 195.229C143.781 195.532 144.143 195.772 144.541 195.932C144.939 196.093 145.366 196.172 145.795 196.165C146.224 196.157 146.647 196.063 147.04 195.888C147.432 195.714 147.785 195.462 148.077 195.147C148.376 194.852 148.614 194.5 148.776 194.112C148.938 193.725 149.021 193.309 149.021 192.888C149.021 192.468 148.938 192.052 148.776 191.664C148.614 191.276 148.376 190.924 148.077 190.629C147.312 189.985 146.75 189.134 146.458 188.178L147.822 189.563C148.27 190.008 148.84 190.31 149.459 190.431C150.078 190.552 150.72 190.487 151.302 190.245C151.885 190.002 152.383 189.592 152.733 189.067C153.083 188.542 153.27 187.925 153.27 187.293C153.27 186.662 153.083 186.045 152.733 185.52C152.383 184.995 151.885 184.585 151.302 184.342C150.72 184.1 150.078 184.035 149.459 184.156C148.84 184.277 148.27 184.579 147.822 185.024L146.245 186.622C146.119 184.766 146.732 182.935 147.95 181.528V181.017H143.687V181.528C144.909 182.925 145.53 184.748 145.413 186.601V186.729L143.815 185.13C143.213 184.531 142.397 184.195 141.548 184.197C140.699 184.199 139.885 184.539 139.286 185.141C138.686 185.743 138.351 186.558 138.353 187.408C138.355 188.257 138.694 189.071 139.296 189.67V189.563Z" fill="#1F1F1F"/>
<path d="M33.6025 41.4124C32.7899 41.4383 31.986 41.2391 31.2794 40.8369C30.6287 40.4662 30.0271 40.015 29.489 39.4941L27.8478 37.9169C27.3232 37.3676 26.7019 36.9196 26.0149 36.5955C24.7908 36.6053 23.5784 36.3584 22.4556 35.8708C21.4783 35.428 20.6228 34.7552 19.9619 33.91C19.2522 33.0125 18.7434 31.9732 18.4699 30.8622C18.1146 29.5639 17.9425 28.2224 17.9584 26.8765C17.9407 25.3901 18.1491 23.9097 18.5765 22.4859C18.9195 21.2738 19.5152 20.1479 20.3242 19.1823C21.0741 18.2971 22.0238 17.6031 23.0949 17.1575C24.271 16.6753 25.5325 16.436 26.8035 16.4542C28.0383 16.4312 29.2646 16.6634 30.4055 17.1362C31.4006 17.5693 32.2776 18.2344 32.9631 19.0758C33.6634 19.9821 34.1777 21.0179 34.4764 22.1236C34.8316 23.4364 35.0037 24.792 34.988 26.1519C35.049 28.3865 34.504 30.596 33.4108 32.5459C32.4538 34.1695 30.9386 35.3893 29.1481 35.9774C29.5846 36.1374 30.0055 36.3372 30.4055 36.5742L31.599 37.2989C32.1941 37.6992 32.8133 38.0622 33.4533 38.3858C34.1234 38.6843 34.8514 38.8299 35.5847 38.8121H36.2454H36.8209L37.1618 40.0696C36.761 40.4266 36.2989 40.7082 35.7979 40.9008C35.1198 41.2506 34.3654 41.4264 33.6025 41.4124ZM26.5051 18.138C25.7723 18.1274 25.0512 18.3212 24.4225 18.6977C23.7938 19.0741 23.2824 19.6184 22.9457 20.2693C21.9888 22.2583 21.5629 24.4611 21.7095 26.6634C21.5706 28.8241 21.9737 30.9854 22.8819 32.9509C23.2069 33.6066 23.7126 34.1557 24.3395 34.5333C24.9664 34.911 25.6883 35.1014 26.4199 35.0822C27.1495 35.0913 27.8672 34.8966 28.4923 34.5201C29.1173 34.1436 29.6248 33.6001 29.9579 32.9509C30.9325 30.9674 31.3664 28.7617 31.2154 26.5568C31.3716 24.3653 30.9605 22.1705 30.0219 20.1841C29.6865 19.5476 29.1789 19.0182 28.5571 18.6564C27.9352 18.2946 27.2241 18.115 26.5051 18.138Z" fill="#1F1F1F"/>
<path d="M138.72 197.3C139.533 197.274 140.337 197.473 141.044 197.875C141.698 198.241 142.3 198.692 142.834 199.218L144.475 200.795C145.003 201.35 145.633 201.798 146.329 202.116C147.546 202.108 148.751 202.355 149.867 202.841C150.845 203.284 151.7 203.957 152.361 204.802C153.071 205.699 153.579 206.739 153.853 207.85C154.208 209.148 154.38 210.49 154.364 211.835C154.382 213.322 154.174 214.802 153.747 216.226C153.395 217.416 152.8 218.519 151.999 219.466C151.261 220.39 150.31 221.121 149.228 221.597C148.052 222.079 146.79 222.319 145.519 222.3C144.285 222.323 143.058 222.091 141.917 221.618C140.925 221.19 140.054 220.524 139.381 219.679C138.666 218.779 138.144 217.741 137.847 216.631C137.491 215.318 137.319 213.963 137.335 212.603C137.274 210.368 137.819 208.159 138.912 206.209C139.869 204.585 141.384 203.365 143.175 202.777C142.738 202.617 142.317 202.417 141.917 202.18L140.724 201.456C140.132 201.051 139.512 200.688 138.87 200.369C138.2 200.07 137.471 199.925 136.738 199.942H136.077H135.502L135.161 198.685C135.562 198.328 136.024 198.046 136.525 197.854C137.199 197.489 137.954 197.299 138.72 197.3ZM145.818 220.574C146.551 220.585 147.272 220.391 147.9 220.014C148.529 219.638 149.04 219.094 149.377 218.443C150.334 216.454 150.76 214.251 150.613 212.049C150.77 209.852 150.367 207.652 149.441 205.655C149.116 204.999 148.61 204.45 147.983 204.072C147.356 203.694 146.635 203.504 145.903 203.523C145.173 203.514 144.456 203.709 143.831 204.085C143.206 204.462 142.698 205.005 142.365 205.655C141.39 207.638 140.956 209.844 141.107 212.049C140.963 214.203 141.366 216.358 142.28 218.315C142.583 218.988 143.074 219.559 143.694 219.96C144.314 220.36 145.037 220.574 145.775 220.574H145.818Z" fill="#1F1F1F"/>
<path d="M143.943 36.5101C142.744 35.3127 141.119 34.6401 139.424 34.6401C137.73 34.6401 136.105 35.3127 134.906 36.5101L132.156 39.2595C132.761 37.3517 133.891 35.6528 135.417 34.3574C136.615 33.1585 137.287 31.5334 137.287 29.8389C137.287 28.1445 136.615 26.5194 135.417 25.3205C134.831 24.7234 134.131 24.2498 133.358 23.9276C132.586 23.6055 131.757 23.4414 130.92 23.4449C129.654 23.4418 128.416 23.8143 127.363 24.5154C126.309 25.2164 125.487 26.2144 125.001 27.3829C124.515 28.5515 124.386 29.838 124.632 31.0796C124.877 32.3212 125.486 33.4619 126.38 34.3574C127.919 35.6416 129.051 37.3445 129.641 39.2595L126.892 36.5101C125.998 35.6151 124.859 35.0053 123.618 34.7579C122.377 34.5106 121.091 34.6367 119.923 35.1205C118.754 35.6042 117.755 36.4237 117.052 37.4754C116.349 38.5271 115.974 39.7636 115.974 41.0286C115.974 42.2935 116.349 43.5301 117.052 44.5817C117.755 45.6334 118.754 46.453 119.923 46.9367C121.091 47.4204 122.377 47.5466 123.618 47.2992C124.859 47.0518 125.998 46.4421 126.892 45.547L130.067 42.3926V42.6271C130.2 44.4679 129.964 46.3167 129.375 48.0657C128.786 49.8147 127.855 51.4292 126.636 52.815V53.8806H135.161V52.815C132.725 50.018 131.491 46.3716 131.73 42.6697C131.73 42.6697 131.73 42.5418 131.73 42.4566L134.884 45.611C136.096 46.7404 137.7 47.3553 139.356 47.3261C141.013 47.2969 142.593 46.6258 143.765 45.4543C144.936 44.2828 145.607 42.7023 145.636 41.0458C145.666 39.3893 145.051 37.7861 143.921 36.574L143.943 36.5101Z" fill="#1F1F1F"/>
<path d="M54.4254 202.223C53.2265 203.42 51.6013 204.093 49.9069 204.093C48.2125 204.093 46.5873 203.42 45.3884 202.223L42.6389 199.474C43.2475 201.374 44.3775 203.065 45.8999 204.354C46.7991 205.246 47.4132 206.385 47.6643 207.626C47.9155 208.867 47.7923 210.155 47.3106 211.326C46.8289 212.498 46.0103 213.499 44.9585 214.205C43.9067 214.91 42.6692 215.287 41.4028 215.288C39.7029 215.279 38.074 214.606 36.863 213.413C36.2669 212.819 35.7939 212.113 35.4712 211.336C35.1485 210.558 34.9823 209.725 34.9823 208.884C34.9823 208.042 35.1485 207.209 35.4712 206.432C35.7939 205.654 36.2669 204.948 36.863 204.354C38.4016 203.079 39.5348 201.383 40.1239 199.474L37.3745 202.223C36.4794 203.115 35.3401 203.722 34.1003 203.967C32.8606 204.212 31.576 204.084 30.409 203.599C29.2419 203.115 28.2446 202.295 27.543 201.244C26.8414 200.193 26.4669 198.958 26.4669 197.694C26.4669 196.43 26.8414 195.195 27.543 194.144C28.2446 193.093 29.2419 192.273 30.409 191.789C31.576 191.304 32.8606 191.176 34.1003 191.421C35.3401 191.666 36.4794 192.273 37.3745 193.165L40.5502 196.341V196.085C40.6842 194.247 40.4496 192.401 39.8604 190.655C39.2711 188.909 38.339 187.299 37.1188 185.918V184.853H45.6442V185.918C43.1979 188.718 41.9635 192.375 42.2126 196.085C42.2126 196.085 42.2126 196.234 42.2126 196.319L45.3671 193.144C46.5683 191.945 48.1963 191.273 49.8931 191.275C51.5899 191.277 53.2163 191.953 54.4147 193.154C55.6131 194.355 56.2851 195.983 56.2831 197.68C56.2811 199.377 55.6052 201.003 54.404 202.202L54.4254 202.223Z" fill="#1F1F1F"/>
<path d="M154.343 170.508H152.212V19.1821H47.7755V17.0508H153.277L154.343 18.1165V170.508ZM17.9365 68.2033V220.595L19.0022 221.661H124.504V219.53H20.0679V68.2033H17.9365Z" fill="#1F1F1F"/>
<path d="M97.4139 210.706C93.8164 210.383 90.4491 208.797 87.908 206.23H86.3735C83.9929 208.962 80.7101 210.747 77.1234 211.26C74.5623 208.599 73.0485 205.102 72.8607 201.413L71.454 200.476C67.97 201.819 64.1108 201.819 60.6267 200.476C63.8833 197.719 66.2431 194.053 67.4044 189.947C73.9364 196.112 82.6371 199.451 91.6167 199.239C92.043 199.239 92.4692 199.239 92.8528 199.239H92.9807H93.1939H93.3218C94.0038 199.239 94.6432 199.239 95.3252 199.069C95.2219 203.05 95.9326 207.01 97.4139 210.706Z" fill="#CBBD9F"/>
<path d="M95.9215 195.062C95.9215 195.786 95.3248 196.639 94.0034 196.98C84.6254 197.577 79.6166 192.525 79.3822 185.129C79.3822 180.355 81.343 175.943 79.3822 172.81C72.6258 161.855 82.8563 163.859 83.6449 154.31C85.6948 153.973 87.6621 153.25 89.4422 152.179C91.0194 155.035 90.6571 159.66 87.6945 161.173C80.1495 165.095 77.869 170.317 83.6023 176.86C86.3518 179.972 81.2365 187.154 84.6253 191.097C88.0142 195.04 95.6444 192.206 95.9215 195.062Z" fill="#2D6B67"/>
<path d="M77.2515 185.172C77.3568 188.98 78.8765 192.612 81.5142 195.36C66.5947 189.371 74.5446 172.853 72.9887 167.866C71.2197 162.196 70.8574 158.637 75.7169 153.585C77.57 154.276 79.5371 154.608 81.5142 154.566C80.5337 162.09 70.1968 162.004 77.6352 173.919C79.0419 176.157 77.2515 180.76 77.2515 185.172Z" fill="#2D6B67"/>
<path d="M72.0079 190.159C70.9183 189.343 69.918 188.414 69.0239 187.388C59.3263 175.41 67.3828 169.698 67.7025 164.54C67.6623 162.873 67.1606 161.25 66.2532 159.851C65.767 158.847 65.6079 157.717 65.7983 156.618C65.9887 155.519 66.5191 154.508 67.3146 153.726C68.1101 152.945 69.1307 152.433 70.2327 152.262C71.3347 152.091 72.4625 152.271 73.4572 152.775C67.9583 158.998 69.4076 163.943 70.6438 167.907C71.88 171.872 67.6173 181.953 72.0079 190.159Z" fill="#2D6B67"/>
<path d="M103.297 146.594L90.6364 138.537C100.014 134.275 106.579 130.14 110.117 122.979C112.067 119.016 112.651 114.52 111.779 110.19C116.388 108.023 120.032 104.227 122.01 99.5337C129.725 120.037 121.669 136.406 103.297 146.594Z" fill="#C93112"/>
<path d="M81.6848 100.173C72.2642 104.436 65.6996 108.571 62.2042 115.732C60.2209 119.684 59.6206 124.187 60.4991 128.52C55.9113 130.703 52.2857 134.496 50.3113 139.177C42.5106 118.545 50.8228 102.198 69.0246 92.2871L81.6848 100.173Z" fill="#C93112"/>
<path d="M75.1624 131.334C72.7602 129.805 70.0396 128.847 67.2095 128.534C64.3794 128.221 61.5154 128.561 58.8372 129.528C56.159 130.495 53.738 132.062 51.7603 134.111C49.7826 136.159 48.3008 138.634 47.4288 141.344C46.5567 144.055 46.3175 146.929 46.7297 149.746C47.1419 152.564 48.1945 155.249 49.8065 157.596C51.4185 159.943 53.5472 161.889 56.0288 163.285C58.5105 164.681 61.2791 165.49 64.122 165.648C64.4843 164.327 64.8253 163.794 63.2694 160.874C62.5802 159.461 62.3527 157.866 62.619 156.316C62.8852 154.766 63.6318 153.339 64.7532 152.237C65.8746 151.134 67.3141 150.412 68.8684 150.172C70.4226 149.932 72.013 150.186 73.4147 150.899C76.5144 152.563 80.147 152.931 83.5173 151.923C88.1423 150.495 88.2916 149.45 89.3146 150.132C89.3146 150.132 89.4851 150.132 89.5704 150.26C89.6556 150.388 89.5704 150.388 89.5704 150.431C89.9771 151.063 90.3198 151.734 90.5934 152.434C93.8757 151.07 97.4138 149.535 100.867 147.745L75.1624 131.334ZM49.8205 145.784C50.0277 143.484 50.7566 141.26 51.9519 139.284L53.785 140.371C52.785 142.076 52.1804 143.984 52.0159 145.955L49.8205 145.784ZM56.2146 159.659C54.3479 158.324 52.7921 156.601 51.6536 154.608L53.5079 153.564C54.5053 155.248 55.8493 156.701 57.4508 157.826L56.2146 159.659ZM59.3691 135.085L58.4313 133.167C60.4964 132.161 62.7627 131.636 65.0598 131.632V133.763C63.1079 133.769 61.1832 134.221 59.433 135.085H59.3691ZM77.9545 139.348L72.6474 136.001L73.7983 134.19L79.1907 137.621L77.9545 139.348ZM90.5509 147.34L85.1371 143.909L86.2881 142.118L91.8296 145.614L90.5509 147.34Z" fill="#CBBD9F"/>
<path d="M108.071 73.0625C107.687 74.4479 107.389 74.9807 108.923 77.8367C109.612 79.2503 109.84 80.8448 109.574 82.3947C109.307 83.9447 108.561 85.3718 107.439 86.4744C106.318 87.577 104.878 88.2992 103.324 88.5392C101.77 88.7791 100.18 88.5246 98.7779 87.8115C94.0037 85.5736 90.082 85.5522 83.8584 88.7067C83.6665 88.8182 83.4411 88.8579 83.2226 88.8189C83.004 88.7799 82.8064 88.6646 82.6649 88.4935L82.537 88.3656C82.1098 87.7595 81.7791 87.0908 81.5565 86.3835C78.2316 87.7475 74.7363 89.2821 71.2408 91.0725L97.1581 107.484C99.5631 109.016 102.288 109.976 105.122 110.289C107.957 110.602 110.825 110.26 113.507 109.289C116.188 108.319 118.611 106.745 120.588 104.691C122.566 102.636 124.045 100.155 124.912 97.4384C125.78 94.7219 126.012 91.8425 125.591 89.0221C125.169 86.2017 124.106 83.5157 122.483 81.1709C120.86 78.8262 118.721 76.8854 116.229 75.4981C113.738 74.1108 110.961 73.314 108.113 73.1691L108.071 73.0625ZM85.9471 96.5074L80.5335 93.0759L81.6844 91.2856L87.0768 94.7171L85.9471 96.5074ZM98.5435 104.436L93.1511 101.005L94.2808 99.2142L99.6731 102.624L98.5435 104.436ZM107.069 106.994V104.862C109.049 104.866 111.003 104.413 112.781 103.541L113.719 105.459C111.679 106.482 109.436 107.036 107.154 107.079L107.069 106.994ZM114.699 80.6928L115.935 78.9664C117.801 80.2969 119.351 82.0214 120.475 84.0177L118.621 85.062C117.658 83.3795 116.351 81.9196 114.784 80.778L114.699 80.6928ZM120.347 99.3421L118.493 98.2551C119.512 96.558 120.118 94.6452 120.262 92.671L122.393 92.8415C122.241 95.1559 121.571 97.4065 120.432 99.4274L120.347 99.3421Z" fill="#CBBD9F"/>
<path d="M105.939 78.86C106.425 79.8635 106.584 80.9943 106.394 82.0931C106.204 83.1918 105.673 84.2031 104.878 84.9846C104.082 85.766 103.062 86.2781 101.96 86.4488C100.858 86.6195 99.7298 86.4402 98.7351 85.9361C104.234 79.7125 102.827 74.7678 101.549 70.8035C100.589 66.5407 104.554 56.6086 100.27 48.5947C101.371 49.3958 102.373 50.326 103.254 51.3655C113.036 63.365 104.895 68.9492 104.575 74.2136C104.597 75.8578 105.069 77.4646 105.939 78.86Z" fill="#2D6B67"/>
<path d="M96.647 85.1261C94.779 84.436 92.798 84.1034 90.8071 84.1457C91.7875 76.7286 102.125 76.686 94.6862 64.793C93.2795 62.4911 95.1337 58.0579 95.0271 53.5394C94.9509 49.7255 93.427 46.0833 90.7644 43.3516C105.833 49.3833 97.7339 65.8374 99.5029 71.3576C100.824 75.3432 101.975 79.4567 96.647 85.1261Z" fill="#2D6B67"/>
<path d="M88.6325 84.4018C86.5835 84.7424 84.617 85.4654 82.8353 86.5331C81.2581 83.6771 81.6416 79.0947 84.5829 77.5388C89.5916 74.9385 93.3429 71.1447 91.3607 65.9442C89.2294 60.3388 86.7996 63.28 88.3768 55.2874C88.9309 52.474 89.4851 49.618 87.7374 47.5293C84.3485 43.5437 76.6117 46.4636 76.3986 43.6502C76.3986 42.9256 76.9953 42.0304 78.3594 41.732C87.5242 41.0713 92.7035 46.1013 92.9379 53.5824C92.9379 57.8451 90.9344 62.6832 92.9379 65.9016C99.6517 76.8568 89.4211 74.8533 88.6325 84.4018Z" fill="#2D6B67"/>
<path d="M111.652 38.3642C108.425 41.1397 106.084 44.8004 104.917 48.8931C104.661 48.68 104.448 48.4668 104.192 48.2111C101.007 45.2487 97.2294 42.9966 93.1088 41.6039H92.9384C88.9905 40.2492 84.8348 39.5999 80.6618 39.6856H80.5339C80.1503 39.6856 79.7666 39.6856 79.3404 39.6856C79.3404 39.6856 79.2124 39.6856 79.1271 39.6856C79.0429 39.6672 78.9556 39.6672 78.8714 39.6856C78.232 39.6856 77.5927 39.6856 76.9533 39.8135C77.083 35.7714 76.3567 31.7475 74.8219 28.0058C78.4194 28.3292 81.7866 29.9146 84.3277 32.4817H85.8623C88.2656 29.7563 91.559 27.9736 95.155 27.4517C97.7194 30.1108 99.2337 33.6089 99.4177 37.2985L100.824 38.2363C104.324 36.9339 108.183 36.9795 111.652 38.3642Z" fill="#CBBD9F"/>
<path d="M98.0111 111.171C97.7979 124.13 86.2247 130.481 80.9602 131.078C78.9064 129.603 76.6623 128.413 74.2891 127.54C74.4704 122.786 76.2535 118.232 79.3487 114.618C82.4439 111.004 86.6696 108.543 91.3399 107.633C93.39 109.114 95.635 110.305 98.0111 111.171Z" fill="#2D6B67"/>
<path d="M80.0863 53.2837V54.9461C80.0808 55.227 79.9668 55.4949 79.7681 55.6936C79.5694 55.8923 79.3015 56.0063 79.0206 56.0118C78.738 56.0118 78.467 55.8995 78.2671 55.6997C78.0673 55.4998 77.9549 55.2288 77.9549 54.9461V53.2837C77.9549 53.001 78.0673 52.73 78.2671 52.5301C78.467 52.3303 78.738 52.218 79.0206 52.218C79.3032 52.218 79.5744 52.3303 79.7742 52.5301C79.9741 52.73 80.0863 53.001 80.0863 53.2837ZM133.86 169.549C133.58 169.985 133.208 170.354 132.77 170.63C132.332 170.907 131.838 171.083 131.324 171.148C130.807 171.201 130.285 171.201 129.768 171.148C130.403 171.652 130.926 172.284 131.303 173.002C131.515 173.458 131.632 173.952 131.648 174.455C131.665 174.958 131.579 175.458 131.396 175.927C131.214 176.396 130.939 176.823 130.587 177.182C130.235 177.542 129.814 177.827 129.35 178.019C128.885 178.212 128.386 178.309 127.883 178.304C127.381 178.299 126.884 178.192 126.423 177.99C125.962 177.788 125.547 177.495 125.203 177.129C124.858 176.763 124.592 176.33 124.418 175.858C124.169 175.081 124.089 174.26 124.184 173.449C123.811 173.982 123.322 174.422 122.753 174.736C122.184 175.05 121.551 175.229 120.902 175.261C120.23 175.26 119.57 175.077 118.993 174.732C118.417 174.387 117.944 173.892 117.625 173.3C117.306 172.709 117.153 172.042 117.182 171.37C117.211 170.698 117.421 170.047 117.79 169.485C118.067 169.051 118.435 168.683 118.87 168.406C119.304 168.13 119.794 167.953 120.305 167.887C121.509 167.812 122.718 167.876 123.907 168.078C122.974 165.798 122.489 163.36 122.479 160.896C121.503 160.83 120.534 160.688 119.58 160.47L119.303 160.342C116.469 158.615 114.529 155.162 112.589 152.541C105.365 156.354 97.9449 159.783 90.3594 162.814L90.8284 165.585C92.6165 164.857 94.5686 164.629 96.4764 164.924C99.7374 165.819 98.2667 169.656 98.9914 170.402C99.0397 170.464 99.1071 170.509 99.1833 170.53C99.3578 170.619 99.5043 170.755 99.6066 170.922C99.7089 171.09 99.7631 171.282 99.7631 171.478C99.7631 171.674 99.7089 171.866 99.6066 172.034C99.5043 172.201 99.3578 172.337 99.1833 172.426C99.8575 172.585 100.499 172.859 101.08 173.236C101.201 173.353 101.292 173.496 101.347 173.655C101.402 173.813 101.419 173.982 101.396 174.148C101.373 174.315 101.311 174.473 101.216 174.611C101.12 174.749 100.993 174.862 100.846 174.941C100.525 175.189 100.274 175.516 100.117 175.889C99.9603 176.263 99.9029 176.67 99.9505 177.073L101.656 177.584L102.231 179.225C100.864 180.952 99.7716 182.878 98.9914 184.938C98.0749 187.73 99.8226 188.987 98.5651 193.463C98.8734 193.974 99.0363 194.56 99.0363 195.157C99.0363 195.755 98.8734 196.34 98.5651 196.852L99.5242 197.726C99.5242 199.58 99.3964 199.857 99.3964 200.305C99.5859 204.142 100.474 207.912 102.018 211.43L101.016 212.922C96.6698 212.957 92.4671 211.368 89.2299 208.468C86.4348 211.256 82.7898 213.034 78.8714 213.519L77.9549 213.199C75.1618 210.439 73.3756 206.822 72.8823 202.926C68.6178 204.159 64.0435 203.717 60.0942 201.69L59.9449 199.878C62.8885 197.692 65.1803 194.745 66.5736 191.353L67.7244 188.092C62.4387 181.272 62.1616 175.879 64.1011 170.7C64.5061 169.634 64.9537 168.569 65.3373 167.801C62.4707 167.517 59.6914 166.655 57.1674 165.267C54.6434 163.878 52.4271 161.993 50.6523 159.724C42.5105 149.536 35.9885 137.664 35.9885 124.578C36.0971 114.272 39.8755 104.342 46.6453 96.5715L45.5158 95.5484C41.8711 95.2927 40.7415 92.6924 41.7645 90.6889C41.5276 90.2503 41.4036 89.7595 41.4036 89.2609C41.4036 88.7624 41.5276 88.2716 41.7645 87.8329C41.5276 87.3904 41.4036 86.8962 41.4036 86.3943C41.4036 85.8923 41.5276 85.3981 41.7645 84.9556C41.5432 84.4745 41.4377 83.9482 41.4565 83.419C41.4753 82.8898 41.6179 82.3723 41.8728 81.9081C42.1277 81.4439 42.4877 81.046 42.9241 80.7461C43.3606 80.4462 43.8613 80.2528 44.3861 80.1814C44.4079 79.7543 44.5495 79.342 44.7944 78.9915C45.0394 78.641 45.378 78.3665 45.7715 78.1992C46.3457 77.9788 46.9486 77.8424 47.5618 77.7943C47.5385 75.5472 47.0826 73.3256 46.219 71.251C45.4835 72.3146 44.6329 73.2938 43.6827 74.1709C43.0468 74.6931 42.2462 74.9725 41.4235 74.9595C40.7679 74.9203 40.1344 74.7087 39.5869 74.3461C39.0393 73.9835 38.5972 73.4828 38.3053 72.8945C38.0133 72.3063 37.8818 71.6514 37.9241 70.996C37.9664 70.3407 38.181 69.7081 38.5462 69.1623C38.8206 68.7259 39.1886 68.3561 39.6236 68.0796C40.0586 67.8032 40.5496 67.6269 41.0612 67.5637C41.5785 67.5113 42.0997 67.5113 42.617 67.5637C41.9831 67.0638 41.4666 66.4308 41.1038 65.7095C40.8918 65.2534 40.7741 64.7591 40.7581 64.2564C40.742 63.7537 40.8277 63.2529 41.0102 62.7842C41.1926 62.3155 41.468 61.8885 41.8197 61.5289C42.1714 61.1694 42.5923 60.8847 43.0568 60.692C43.5214 60.4992 44.0201 60.4024 44.5231 60.4074C45.026 60.4124 45.5228 60.5191 45.9834 60.721C46.4441 60.9229 46.8591 61.2159 47.2036 61.5824C47.5481 61.9488 47.815 62.3812 47.9881 62.8534C48.227 63.6324 48.3067 64.4515 48.2225 65.2619C48.5882 64.7227 49.0762 64.2775 49.6466 63.9627C50.217 63.6478 50.8537 63.4723 51.5049 63.4502C52.1771 63.4514 52.8364 63.6343 53.4132 63.9795C53.9901 64.3246 54.4629 64.8192 54.7818 65.411C55.1006 66.0028 55.2535 66.6698 55.2245 67.3414C55.1954 68.0129 54.9853 68.6642 54.6166 69.2262C54.3357 69.6567 53.9659 70.022 53.5321 70.2977C53.0984 70.5735 52.6106 70.7531 52.1016 70.8247C50.8904 70.8991 49.6748 70.8347 48.4782 70.6329C49.4257 72.9095 49.9182 75.3497 49.9277 77.8156C50.8965 77.8814 51.8586 78.0239 52.805 78.2418L53.082 78.3697C55.9167 80.0961 57.8775 83.5489 59.7957 86.1705C67.0271 82.3574 74.4546 78.9282 82.0471 75.8973L81.5569 73.1266C79.0206 74.0004 75.1628 74.7038 74.0758 72.338C73.3512 70.7821 73.9053 68.8426 73.4151 68.3097C73.3576 68.2478 73.2837 68.2035 73.202 68.1818C73.0334 68.0874 72.893 67.9498 72.7953 67.7831C72.6975 67.6164 72.6461 67.4266 72.6461 67.2334C72.6461 67.0401 72.6975 66.8504 72.7953 66.6837C72.893 66.517 73.0334 66.3793 73.202 66.2849C72.591 66.1287 72.0033 65.8922 71.4543 65.5816C71.3001 65.486 71.1729 65.3526 71.0846 65.1941C70.9964 65.0356 70.95 64.8572 70.95 64.6758C70.95 64.4943 70.9964 64.3159 71.0846 64.1574C71.1729 63.9989 71.3001 63.8655 71.4543 63.7699C71.7727 63.5213 72.0207 63.194 72.174 62.8202C72.3272 62.4464 72.3803 62.0391 72.3281 61.6386L70.6231 61.127L70.0689 59.4859C71.428 57.7544 72.52 55.829 73.3086 53.7739C74.2251 50.9605 72.4774 49.7456 73.7349 45.2484C73.4266 44.737 73.2637 44.1512 73.2637 43.554C73.2637 42.9569 73.4266 42.371 73.7349 41.8596L72.7544 40.9857C72.7544 39.2593 72.8823 38.9609 72.8823 38.4068C72.7 34.5709 71.8189 30.8005 70.2821 27.2811L71.2624 25.7892C75.615 25.7557 79.8243 27.3436 83.0702 30.2437C85.8568 27.4552 89.495 25.6773 93.4073 25.1924L94.3237 25.5121C97.1192 28.273 98.9122 31.8888 99.4177 35.7852C103.682 34.5522 108.257 34.9944 112.206 37.0214L112.355 38.8331C109.411 41.0242 107.114 43.9697 105.705 47.3585L104.554 50.6195C109.861 57.4398 110.138 62.8321 108.178 68.0113C107.794 69.077 107.346 70.0361 106.941 70.91C111.847 71.3405 116.44 73.501 119.9 77.0056L120.135 77.2614C129.278 87.7477 136.29 100.216 136.29 114.134C136.185 124.44 132.406 134.371 125.633 142.14L126.763 143.163C130.408 143.419 131.537 146.04 130.493 148.022C130.734 148.46 130.86 148.951 130.86 149.45C130.86 149.95 130.734 150.441 130.493 150.878C130.734 151.32 130.86 151.814 130.86 152.317C130.86 152.82 130.734 153.314 130.493 153.756C130.719 154.235 130.829 154.76 130.813 155.29C130.798 155.819 130.658 156.338 130.404 156.803C130.151 157.268 129.792 157.667 129.355 157.967C128.919 158.267 128.418 158.46 127.893 158.53C127.866 158.959 127.721 159.372 127.472 159.722C127.224 160.072 126.882 160.346 126.486 160.512C125.92 160.734 125.323 160.871 124.717 160.917C124.738 163.164 125.194 165.386 126.06 167.46C126.795 166.397 127.646 165.418 128.596 164.54C129.23 164.015 130.032 163.735 130.855 163.752C131.522 163.769 132.171 163.965 132.736 164.319C133.301 164.673 133.761 165.172 134.068 165.764C134.375 166.356 134.518 167.019 134.481 167.685C134.445 168.351 134.23 168.994 133.86 169.549ZM44.6632 69.9296C43.5337 69.7069 42.3817 69.621 41.2317 69.6738H40.9333C40.6394 69.799 40.3879 70.0062 40.2087 70.2706C40.051 70.512 39.9616 70.7917 39.95 71.0798C39.9383 71.368 40.0048 71.6539 40.1425 71.9073C40.2801 72.1608 40.4837 72.3722 40.7318 72.5193C40.9798 72.6664 41.2629 72.7437 41.5513 72.7429C41.7144 72.7526 41.8777 72.7292 42.0315 72.6743C42.1853 72.6193 42.3265 72.534 42.4466 72.4232C43.2812 71.6823 44.0252 70.8453 44.6632 69.9296ZM46.0059 64.5159C46.0406 64.2256 46.0406 63.9323 46.0059 63.642C45.896 63.3728 45.7147 63.1387 45.4815 62.9648C45.2484 62.791 44.9721 62.6841 44.6827 62.6556C44.3932 62.6271 44.1016 62.6781 43.8391 62.8031C43.5765 62.9281 43.3529 63.1224 43.1925 63.365C43.007 63.6226 42.9071 63.932 42.9071 64.2495C42.9071 64.567 43.007 64.8764 43.1925 65.134C43.9704 65.938 44.8354 66.6528 45.7715 67.2654C45.9161 66.3557 45.9944 65.4369 46.0059 64.5159ZM74.2677 127.476C76.6355 128.388 78.8774 129.599 80.9389 131.078C84.2002 130.431 87.2667 129.036 89.8965 127.002C92.5263 124.967 94.6474 122.35 96.0928 119.356C97.3021 116.824 97.9493 114.062 97.9897 111.257C95.6193 110.35 93.3768 109.139 91.3186 107.655C88.0482 108.298 84.9717 109.692 82.3311 111.726C79.6905 113.76 77.5578 116.379 76.1007 119.377C74.9289 121.918 74.3045 124.678 74.2677 127.476ZM76.3991 114.688C79.4719 110.577 83.7589 107.535 88.6544 105.992L81.5783 101.516C73.7136 104.969 65.6357 108.955 61.8632 116.649C60.1566 120.008 59.5809 123.828 60.222 127.54C64.0198 126.189 68.1264 125.959 72.051 126.879C72.2569 122.45 73.8111 118.189 76.5056 114.667L76.3991 114.688ZM83.4112 132.762L90.4873 137.238C98.3307 133.785 106.43 129.799 110.224 122.105C111.914 118.741 112.482 114.924 111.844 111.214C108.055 112.576 103.952 112.805 100.036 111.875C99.7894 116.063 98.4074 120.104 96.038 123.566C93.6687 127.028 90.4015 129.78 86.5869 131.526C85.5994 132.015 84.5728 132.422 83.5177 132.741L83.4112 132.762ZM92.7679 138.538L105.428 146.573C113.261 142.665 119.66 136.385 123.715 128.627C128.362 119.164 127.978 109.551 124.163 99.5341C122.196 104.251 118.573 108.087 113.975 110.319C114.209 111.599 114.33 112.897 114.337 114.198C114.203 117.826 113.201 121.369 111.413 124.529C109.625 127.689 107.105 130.374 104.064 132.357C100.512 134.785 96.728 136.855 92.7679 138.538ZM102.061 51.1523C101.182 50.1886 100.227 49.2976 99.2046 48.4881C102.423 54.4346 101.059 61.2762 100.377 67.1162C100.228 68.1481 100.228 69.196 100.377 70.2279C101.163 72.3181 101.616 74.519 101.72 76.7499C101.609 80.1992 100.201 83.4797 97.7765 85.936C98.59 86.3156 99.4846 86.4885 100.381 86.4396C101.277 86.3906 102.148 86.1213 102.915 85.6554C103.682 85.1895 104.323 84.5415 104.78 83.7688C105.237 82.9961 105.496 82.1226 105.535 81.2257C105.535 79.4141 104.682 78.6468 103.979 76.7286C103.659 75.9229 103.513 75.0584 103.553 74.1923C103.915 68.7999 111.993 63.2158 102.061 51.1523ZM93.6417 64.7717C100.036 75.0874 93.045 76.8351 90.5513 81.4176C90.0836 82.2454 89.7864 83.1585 89.6774 84.1031C91.7119 84.0325 93.7402 84.3657 95.6452 85.0835C101.059 79.3501 99.6734 75.3006 98.3094 70.846C96.9453 66.3915 102.828 53.305 94.6222 46.1436C93.1795 44.8845 91.5079 43.9148 89.6987 43.2876C91.4004 44.8891 92.6502 46.9107 93.3221 49.1488C95.3682 55.9692 91.83 61.8091 93.6417 64.7717ZM74.7792 39.8135C80.1017 39.1015 85.5168 39.6416 90.5939 41.3907H90.8496C95.2716 42.9736 99.3097 45.472 102.7 48.7226L103.467 46.5912C104.749 43.3339 106.813 40.4425 109.478 38.1723C105.984 36.8396 102.123 36.8396 98.6291 38.1723L97.2225 37.2345C97.0416 33.5379 95.5272 30.0321 92.9598 27.3664C89.3756 27.9018 86.0976 29.6918 83.7096 32.4177H82.1538C79.6064 29.8695 76.2384 28.3064 72.6479 28.0058C74.1563 31.7551 74.8816 35.7734 74.7792 39.8135ZM88.0362 66.1997C87.4646 65.0999 86.7477 64.0819 85.9048 63.1731C84.9391 62.0255 84.4374 60.5583 84.4982 59.0596C84.4982 52.9853 89.1871 47.2306 78.7222 47.2306C77.5825 47.3128 76.4391 47.138 75.3761 46.7191C75.3165 46.9573 75.2736 47.1995 75.2481 47.4437C75.2463 47.636 75.2902 47.8259 75.3761 47.9979C76.0368 48.957 79.4683 48.5307 81.7701 49.7882C81.9999 49.9348 82.1648 50.1638 82.2309 50.4282C82.297 50.6926 82.2593 50.9722 82.1255 51.2097C81.9918 51.4472 81.7722 51.6243 81.5118 51.7049C81.2514 51.7854 80.9701 51.763 80.7257 51.6425C78.9971 51.1093 77.2299 50.7103 75.4399 50.449C75.6914 51.785 75.6035 53.1627 75.1842 54.4559C74.5888 56.254 73.7344 57.9557 72.6479 59.5072L75.0136 60.1892C75.1536 60.227 75.2848 60.292 75.3996 60.3805C75.5145 60.4689 75.6107 60.5792 75.6829 60.7048C75.7552 60.8305 75.8019 60.9692 75.8206 61.1129C75.8392 61.2567 75.8294 61.4027 75.7916 61.5427C75.7538 61.6826 75.6888 61.8137 75.6003 61.9286C75.5119 62.0434 75.4017 62.1397 75.276 62.2119C75.1504 62.2842 75.0117 62.331 74.868 62.3496C74.7242 62.3682 74.5782 62.3584 74.4383 62.3206C74.3907 63.011 74.1865 63.6816 73.8414 64.2815C74.3167 64.39 74.8034 64.4401 75.2907 64.4306C75.5734 64.4306 75.8445 64.5429 76.0443 64.7428C76.2442 64.9426 76.3564 65.2137 76.3564 65.4963C76.3592 65.6353 76.3344 65.7734 76.2832 65.9025C76.232 66.0317 76.1554 66.1494 76.0581 66.2486C75.9609 66.3479 75.8449 66.4267 75.7168 66.4805C75.5887 66.5343 75.451 66.562 75.3121 66.562C74.2038 66.562 74.4808 66.3489 74.9923 66.967C76.1859 68.331 75.4399 70.3984 75.9515 71.4428C75.9821 71.5005 76.0246 71.5512 76.0759 71.5916C76.1273 71.6319 76.1865 71.6611 76.2499 71.6773C78.3386 72.4659 86.0541 69.5885 88.1002 66.1997H88.0362ZM83.4112 72.2953L83.8588 74.8103C86.0968 73.4463 88.5265 71.4641 88.633 68.8426C87.1179 70.2726 85.3747 71.4396 83.4752 72.2953H83.4112ZM81.6421 86.4049C83.4886 85.4795 85.4333 84.7645 87.4395 84.2736C87.9297 78.3484 92.7466 76.6007 93.8336 73.3397C94.6435 70.9526 93.1089 67.99 91.7022 65.816C88.9314 61.3402 93.9828 54.9248 90.2529 47.6995C87.7379 42.8613 82.6866 41.3054 77.1877 41.6251C74.4809 42.2006 74.2251 45.014 78.1255 45.014C80.8536 45.014 84.2851 45.1632 86.2459 47.1454C90.0824 51.0457 84.6688 58.4842 87.4822 61.6812C93.1303 68.0753 91.1267 73.3397 83.4112 77.368C80.3847 79.1157 80.3847 83.8899 81.7061 86.4049H81.6421ZM79.2764 86.277C75.8875 87.6837 72.3922 89.197 68.9607 90.9447L94.9206 107.399C97.9017 109.292 101.364 110.291 104.895 110.276C109.841 110.276 114.585 108.311 118.082 104.814C121.58 101.316 123.545 96.5729 123.545 91.6268C123.592 87.5475 122.254 83.5728 119.751 80.3519C119.282 79.7977 118.813 79.2436 118.323 78.7107C115.087 75.246 110.613 73.2005 105.876 73.02C105.343 74.6185 105.428 75.3432 106.728 77.8582C107.425 79.271 107.657 80.8675 107.393 82.4203C107.129 83.9731 106.382 85.4029 105.257 86.506C104.133 87.6091 102.689 88.3292 101.132 88.5636C99.574 88.798 97.9822 88.5349 96.583 87.8116C93.484 86.1456 89.8504 85.7776 86.4804 86.7886C82.0471 88.174 81.7914 89.1118 80.8749 88.7707C79.9584 88.4297 79.5748 87.0017 79.3404 86.277H79.2764ZM48.2865 68.4163C49.4173 68.6285 50.5682 68.7143 51.7179 68.672H52.0164C52.3102 68.5469 52.5617 68.3397 52.741 68.0753C52.8986 67.8338 52.988 67.5542 52.9997 67.266C53.0114 66.9779 52.9448 66.6919 52.8072 66.4385C52.6695 66.1851 52.4659 65.9736 52.2179 65.8265C51.9698 65.6794 51.6867 65.6021 51.3983 65.6029C51.0731 65.5867 50.7535 65.6932 50.5031 65.9013C49.6729 66.6546 48.9295 67.4981 48.2865 68.4163ZM48.2865 94.973C51.1817 92.0061 54.4316 89.4076 57.9628 87.2362C56.402 84.5904 54.4143 82.2211 52.0802 80.224C50.4033 79.8206 48.66 79.7771 46.9651 80.0961C46.7732 80.0961 46.752 80.2027 46.7306 80.2453C46.7093 80.2879 46.7306 80.4371 46.8372 80.4798C47.0066 80.6902 47.2168 80.8642 47.4552 80.9913C48.3747 81.4714 49.4025 81.7063 50.4392 81.6733L51.4622 82.4193L52.5919 86.0213C52.6382 86.1541 52.657 86.2949 52.6475 86.4352C52.6381 86.5755 52.6004 86.7125 52.5367 86.8379C52.473 86.9633 52.3847 87.0745 52.2769 87.165C52.1692 87.2554 52.0444 87.3231 51.9098 87.364C51.6413 87.4515 51.3491 87.4287 51.0973 87.3008C50.8455 87.173 50.6548 86.9504 50.5671 86.682L49.6506 83.762C48.1263 83.7235 46.6605 83.1673 45.4944 82.1848C42.8942 82.3767 42.7876 85.6376 48.1159 84.6572C48.2533 84.6296 48.3948 84.6299 48.5321 84.6581C48.6693 84.6863 48.7995 84.7418 48.9148 84.8213C49.0302 84.9009 49.1284 85.0028 49.2035 85.1211C49.2786 85.2394 49.3292 85.3715 49.3522 85.5098C49.402 85.7866 49.3403 86.0719 49.1806 86.3035C49.0209 86.5351 48.7761 86.6941 48.4996 86.7459C46.9299 87.1095 45.2894 87.0208 43.768 86.4902C43.7868 86.6275 43.8345 86.7594 43.908 86.8769C43.9815 86.9945 44.0791 87.0951 44.1943 87.1722C45.4346 87.7482 46.8382 87.869 48.1586 87.5132C48.2986 87.488 48.4421 87.4907 48.581 87.5209C48.7199 87.5512 48.8515 87.6086 48.9683 87.6897C49.0851 87.7709 49.1848 87.8742 49.2616 87.9939C49.3385 88.1135 49.3909 88.2471 49.416 88.3871C49.4412 88.527 49.4386 88.6706 49.4084 88.8095C49.3781 88.9484 49.3208 89.0801 49.2396 89.1968C49.1585 89.3136 49.0552 89.4132 48.9355 89.4901C48.8158 89.5669 48.6822 89.6194 48.5422 89.6446C46.959 90.0164 45.3025 89.9277 43.768 89.3888C43.7825 89.5274 43.8284 89.6609 43.9023 89.7791C43.9761 89.8973 44.0761 89.9971 44.1943 90.0709C45.3942 90.6538 46.7646 90.7825 48.0521 90.4332C48.3289 90.3834 48.6142 90.445 48.8457 90.6047C49.0773 90.7645 49.2364 91.0092 49.2882 91.2857C49.3158 91.4231 49.3156 91.5646 49.2874 91.7019C49.2592 91.8391 49.2037 91.9693 49.1241 92.0846C49.0446 92.2 48.9425 92.2981 48.8243 92.3732C48.706 92.4484 48.5739 92.4989 48.4357 92.5219C46.8864 92.8732 45.2697 92.7846 43.768 92.2662C43.768 93.1826 45.26 93.4384 46.1765 93.4597C46.6454 93.4384 46.9225 93.7794 48.2013 94.973H48.2865ZM47.0716 142.31C42.2334 130.972 41.2743 119.974 46.624 109.104C53.1672 95.7829 65.4652 89.7512 78.8075 84.167C78.5762 82.54 78.7369 80.8812 79.2764 79.3288C69.6 83.5915 58.9645 87.428 50.7375 95.3992C46.8343 99.1944 43.7211 103.725 41.5775 108.729C39.4338 113.733 38.3021 119.112 38.2478 124.556C38.4888 133.95 41.4503 143.071 46.7732 150.815C46.2831 147.99 46.3848 145.094 47.0716 142.31ZM48.0946 139.135C50.0615 134.418 53.6849 130.582 58.2826 128.35C58.0487 127.07 57.9275 125.772 57.9203 124.471C57.9203 117.16 62.0124 110.809 68.1933 106.312C71.7401 103.875 75.525 101.804 79.4896 100.131L66.8293 92.0956C58.9967 96.0038 52.5971 102.284 48.5422 110.042C43.9172 119.505 44.3222 129.117 48.1373 139.135H48.0946ZM70.2181 187.559C71.1091 188.518 72.071 189.409 73.0955 190.223C68.7262 182.124 72.8183 171.212 71.9445 168.483C71.1771 166.389 70.7315 164.19 70.6231 161.961C70.7339 158.512 72.1421 155.232 74.5661 152.775C73.5728 152.287 72.4518 152.119 71.359 152.297C70.2662 152.474 69.2558 152.988 68.4683 153.766C67.6808 154.544 67.1552 155.548 66.9646 156.639C66.774 157.729 66.9278 158.852 67.4047 159.851C68.9819 162.963 69.2163 164.285 68.0654 167.162C66.5421 169.987 65.6001 173.089 65.2947 176.284C65.5964 180.495 67.3344 184.475 70.2181 187.559ZM79.1912 176.327C79.231 175.498 79.0469 174.673 78.6583 173.94C72.2642 163.624 79.2551 161.876 81.7488 157.294C82.207 156.462 82.5034 155.551 82.6226 154.608C80.5879 154.682 78.5589 154.349 76.6548 153.628C71.2412 159.361 72.6053 163.39 73.9906 167.865C75.2481 172.021 69.4721 185.406 77.6565 192.568C79.1333 193.824 80.8321 194.793 82.6653 195.424C80.962 193.824 79.712 191.802 79.0419 189.563C77.3582 184.128 79.1912 179.929 79.1912 176.327ZM97.4356 199.367V198.898C92.113 199.602 86.6996 199.062 81.6209 197.321H81.3438C76.9244 195.733 72.8873 193.235 69.4935 189.989L68.7475 192.12C67.481 195.416 65.4157 198.345 62.737 200.646C66.2248 201.969 70.0766 201.969 73.5643 200.646L74.9923 201.583C75.1732 205.28 76.6876 208.786 79.255 211.452C82.8374 210.911 86.1137 209.122 88.5052 206.4H90.0397C92.5798 208.984 95.9575 210.579 99.5669 210.897C98.1073 207.231 97.3831 203.313 97.4356 199.367ZM84.1998 172.512C84.7637 173.616 85.4813 174.635 86.3311 175.538C87.3004 176.683 87.796 178.154 87.7166 179.652C87.7166 185.726 83.0275 191.481 93.5138 191.481C94.6534 191.399 95.797 191.573 96.86 191.992C96.86 191.715 96.86 191.481 96.86 191.268C96.8719 191.074 96.8274 190.882 96.7322 190.714C96.0714 189.754 92.64 190.181 90.3381 188.923C90.2144 188.857 90.1055 188.766 90.0177 188.656C89.9299 188.546 89.8652 188.42 89.8274 188.285C89.7896 188.149 89.7794 188.008 89.7976 187.868C89.8158 187.729 89.8619 187.595 89.9331 187.474C90.0719 187.228 90.3024 187.048 90.5741 186.972C90.8458 186.896 91.1365 186.931 91.3824 187.069C93.1104 187.604 94.8779 188.003 96.6683 188.262C96.3943 186.928 96.4826 185.544 96.924 184.255C97.5617 182.447 98.4669 180.744 99.6096 179.204L97.2437 178.522C97.1037 178.486 96.9724 178.422 96.8571 178.335C96.7417 178.248 96.6446 178.139 96.5714 178.014C96.4982 177.889 96.4502 177.752 96.4302 177.608C96.4103 177.465 96.4187 177.319 96.4551 177.179C96.4915 177.039 96.5551 176.908 96.6423 176.793C96.7295 176.677 96.8385 176.58 96.9632 176.507C97.0879 176.434 97.2257 176.386 97.3689 176.366C97.5122 176.346 97.6579 176.354 97.7978 176.391C97.8658 175.704 98.0687 175.038 98.3947 174.43C97.9285 174.311 97.4473 174.261 96.9666 174.281C96.6871 174.276 96.4199 174.165 96.2183 173.972C96.0168 173.778 95.8958 173.515 95.8797 173.236C95.8769 173.096 95.9016 172.957 95.9526 172.827C96.0035 172.697 96.0797 172.577 96.1767 172.477C96.2737 172.376 96.3896 172.295 96.5178 172.239C96.646 172.182 96.7841 172.152 96.924 172.149C98.0537 172.149 97.7765 172.363 97.2437 171.744C96.0501 170.38 96.7961 168.313 96.3059 167.269C96.2709 167.21 96.2246 167.159 96.1697 167.119C96.1148 167.079 96.0525 167.05 95.9862 167.034C93.9615 166.246 86.2672 169.08 84.1998 172.512ZM88.8249 166.416L88.3773 163.901C86.1181 165.265 83.7096 167.247 83.6031 169.869C85.1375 168.433 86.9028 167.266 88.8249 166.416ZM90.5939 152.306C88.7374 153.226 86.7864 153.941 84.7753 154.438C84.3064 160.342 79.4682 162.111 78.3812 165.372C77.5926 167.759 79.1272 170.743 80.5126 172.895C83.3047 177.371 78.232 183.787 81.9619 191.012C84.4982 195.871 89.5922 197.406 95.0484 197.086C97.734 196.511 98.011 193.697 94.0893 193.697C91.3825 193.697 87.951 193.548 85.9902 191.566C82.1537 187.666 87.546 180.227 84.7326 177.03C79.0419 170.636 81.1734 165.329 88.8249 161.343C91.8301 159.596 91.83 154.821 90.5939 152.306ZM92.9598 152.434C96.3273 151.028 99.8226 149.514 103.254 147.767L77.3155 131.313C74.9065 129.787 72.1796 128.834 69.3446 128.527C66.5095 128.22 63.6417 128.567 60.9618 129.542C58.282 130.516 55.8614 132.093 53.8861 134.149C51.9108 136.206 50.4334 138.688 49.5676 141.405C48.7018 144.122 48.4706 147.002 48.8918 149.822C49.313 152.642 50.3753 155.329 51.9971 157.674C53.6189 160.02 55.757 161.962 58.247 163.352C60.737 164.742 63.5126 165.542 66.3603 165.691C66.5608 165.22 66.6642 164.712 66.6642 164.199C66.6642 163.687 66.5608 163.179 66.3603 162.707C65.3994 161.12 64.816 159.334 64.6553 157.486C64.6947 156.212 65.0533 154.969 65.6981 153.87C66.3429 152.771 67.2534 151.852 68.3459 151.197C69.4384 150.541 70.678 150.17 71.951 150.118C73.224 150.067 74.4896 150.335 75.6318 150.9C78.7416 152.556 82.3776 152.923 85.7558 151.923C90.125 150.559 90.4234 149.6 91.3399 149.941C92.2564 150.282 92.704 151.731 92.9598 152.434ZM129.662 132.144C137.1 117.011 134.5 101.943 125.399 87.9182C125.92 90.744 125.847 93.6473 125.186 96.4436C130.003 107.761 130.983 118.759 125.633 129.65C119.069 142.971 106.792 149.003 93.4499 154.587C93.6846 156.216 93.5164 157.877 92.9598 159.425C106.75 153.457 121.861 147.98 129.662 132.144ZM124.014 170.295C122.883 170.083 121.732 169.997 120.582 170.039H120.284C119.99 170.165 119.738 170.372 119.559 170.636C119.401 170.878 119.312 171.157 119.3 171.445C119.289 171.734 119.355 172.019 119.493 172.273C119.63 172.526 119.834 172.738 120.082 172.885C120.33 173.032 120.613 173.109 120.902 173.108C121.226 173.121 121.544 173.015 121.797 172.81C122.621 172.051 123.364 171.208 124.014 170.295ZM124.866 158.743C125.129 158.72 125.383 158.64 125.612 158.509C125.625 158.431 125.625 158.352 125.612 158.274C125.439 158.059 125.22 157.885 124.973 157.763C124.06 157.284 123.04 157.049 122.01 157.081L120.987 156.335L119.836 152.733C119.76 152.468 119.79 152.183 119.92 151.94C120.049 151.697 120.268 151.513 120.53 151.427C120.792 151.342 121.077 151.361 121.326 151.481C121.574 151.602 121.766 151.813 121.861 152.072L122.799 154.992C124.316 155.032 125.775 155.588 126.933 156.569C129.555 156.377 129.662 153.116 124.312 154.097C124.175 154.124 124.033 154.124 123.896 154.096C123.759 154.068 123.628 154.012 123.513 153.933C123.398 153.853 123.3 153.751 123.224 153.633C123.149 153.515 123.099 153.382 123.076 153.244C123.026 152.967 123.088 152.682 123.247 152.45C123.407 152.219 123.652 152.06 123.928 152.008C125.505 151.64 127.153 151.729 128.681 152.264C128.665 152.126 128.619 151.993 128.545 151.875C128.471 151.757 128.372 151.657 128.255 151.582C127.014 151.008 125.611 150.887 124.291 151.241C124.008 151.292 123.717 151.228 123.481 151.064C123.245 150.9 123.084 150.65 123.033 150.367C122.982 150.084 123.046 149.793 123.21 149.557C123.373 149.321 123.624 149.16 123.907 149.109C125.489 148.723 127.15 148.812 128.681 149.365C128.667 149.227 128.621 149.093 128.547 148.975C128.473 148.857 128.373 148.757 128.255 148.683C127.047 148.102 125.671 147.974 124.376 148.321C124.236 148.345 124.093 148.341 123.954 148.309C123.816 148.277 123.685 148.219 123.569 148.137C123.453 148.055 123.355 147.951 123.28 147.83C123.204 147.71 123.153 147.576 123.129 147.436C123.105 147.296 123.109 147.153 123.141 147.015C123.172 146.876 123.231 146.745 123.313 146.63C123.395 146.514 123.499 146.415 123.619 146.34C123.74 146.264 123.874 146.213 124.014 146.189C125.563 145.838 127.18 145.927 128.681 146.445C128.681 145.529 127.168 145.273 126.252 145.252C125.719 145.252 125.442 144.868 124.12 143.696C121.237 146.667 117.993 149.266 114.465 151.433C116.017 154.078 117.998 156.448 120.326 158.445C121.814 158.785 123.347 158.885 124.866 158.743ZM129.129 173.663C128.351 172.859 127.486 172.144 126.55 171.531C126.387 172.468 126.294 173.415 126.273 174.366C126.236 174.656 126.236 174.95 126.273 175.24C126.383 175.509 126.564 175.743 126.797 175.917C127.03 176.091 127.307 176.198 127.596 176.226C127.885 176.255 128.177 176.204 128.44 176.079C128.702 175.954 128.926 175.76 129.086 175.517C129.322 175.252 129.458 174.913 129.47 174.559C129.482 174.204 129.368 173.857 129.15 173.577L129.129 173.663ZM130.727 165.99C130.564 165.98 130.401 166.003 130.247 166.058C130.093 166.113 129.952 166.199 129.832 166.309C129.029 167.08 128.314 167.938 127.701 168.867C128.83 169.09 129.982 169.176 131.132 169.123H131.409C131.707 169.003 131.96 168.795 132.134 168.526C132.34 168.283 132.468 167.983 132.502 167.666C132.536 167.349 132.475 167.029 132.326 166.748C132.177 166.466 131.948 166.235 131.666 166.085C131.385 165.935 131.066 165.872 130.749 165.904L130.727 165.99ZM42.2761 139.369L43.1499 141.309L45.0895 140.456L44.2155 138.495L42.2761 139.369ZM59.0711 93.0974L57.8136 91.3923L56.0872 92.6498L57.3234 94.3549L59.0711 93.0974ZM64.6126 89.6872L63.5469 87.8329L61.6927 88.8986L62.7584 90.7529L64.6126 89.6872ZM53.9558 97.147L52.464 95.6124L50.9507 97.1043L52.4213 98.6389L53.9558 97.147ZM49.6931 101.9L47.9667 100.621L46.7093 102.347L48.4357 103.605L49.6931 101.9ZM70.5165 86.6607L69.6001 84.7425L67.6604 85.659L68.577 87.5772L70.5165 86.6607ZM42.5105 132.144L40.3791 132.613L40.8694 134.744L43.0008 134.254C42.6811 133.018 42.8089 133.465 42.5105 132.144ZM43.5975 112.962L41.4661 112.344L40.8481 114.475L42.9794 115.093C43.3631 113.921 43.2138 114.368 43.5975 113.132V112.962ZM42.0842 119.356L39.9528 119.1L39.7184 121.231L41.8498 121.466C41.9776 120.187 41.935 120.656 42.0842 119.356ZM46.1551 107.164L44.2369 106.227L43.2777 108.145L45.196 109.083L46.1551 107.164ZM41.7219 125.75L39.5905 125.899L39.7397 128.03L41.8711 127.881C41.7645 126.624 41.8071 127.093 41.7219 125.75ZM76.5483 83.9752L75.6744 82.0357L73.7136 82.8882L74.5874 84.849L76.5483 83.9752ZM93.2794 186.493C93.564 186.488 93.835 186.371 94.0343 186.168C94.2335 185.964 94.3451 185.691 94.3451 185.406V183.765C94.3396 183.484 94.2256 183.216 94.0269 183.018C93.8282 182.819 93.5603 182.705 93.2794 182.7C92.9967 182.7 92.7258 182.812 92.5259 183.012C92.3261 183.212 92.2137 183.483 92.2137 183.765V185.428C92.2137 185.71 92.3261 185.981 92.5259 186.181C92.7258 186.381 92.9967 186.493 93.2794 186.493ZM129.129 97.488L127.168 98.3405L128.042 100.301L130.003 99.4275L129.129 97.488ZM129.001 130.524L127.104 129.586L126.145 131.504L128.042 132.442L129.001 130.524ZM101.805 152.051L102.721 153.969L104.64 153.052L103.723 151.134L101.805 152.051ZM125.612 136.407L123.907 135.149L122.628 136.854L124.355 138.133L125.612 136.407ZM107.666 149.195L108.71 151.049L110.565 149.983L109.52 148.129L107.666 149.195ZM113.208 145.785L114.465 147.49L116.191 146.232L114.934 144.527C113.868 145.209 114.231 144.932 113.144 145.699L113.208 145.785ZM130.578 112.962L132.709 112.812L132.582 110.681L130.45 110.83C130.514 112.109 130.493 111.598 130.578 112.962ZM130.216 119.356L132.347 119.611L132.603 117.48L130.472 117.246C130.301 118.524 130.365 118.034 130.194 119.356H130.216ZM131.367 124.194L129.235 123.576L128.617 125.707L130.749 126.325L131.367 124.194ZM129.79 106.525L131.921 106.056L131.431 103.925L129.299 104.415C129.598 105.715 129.491 105.225 129.79 106.568V106.525ZM118.259 141.692L119.751 143.227L121.285 141.735L119.793 140.2L118.259 141.692ZM95.773 154.715L96.5616 156.697L98.5439 155.93L97.7765 153.948L95.773 154.715ZM82.5587 106.077L81.5996 104.18L79.7027 105.14L80.6618 107.036L82.5587 106.077ZM66.6801 118.056L68.5982 118.993C69.195 117.778 68.9819 118.226 69.536 117.054L67.6179 116.137L66.6801 118.056ZM76.1859 107.122L74.4383 108.337L75.6744 110.084L77.4221 108.848L76.1859 107.122ZM69.941 112.663L71.5182 114.091L72.9463 112.493L71.3478 111.065L69.941 112.663ZM65.2095 124.236L67.3408 124.45L67.5539 122.318L65.4225 122.105L65.2095 124.236ZM92.5973 133.657L91.6382 131.76L89.7201 132.719L90.6792 134.616L92.5973 133.657ZM102.359 126.133L100.76 124.705L99.3538 126.304L100.931 127.732L102.359 126.133ZM97.8619 130.396L96.6256 128.648L94.8779 129.885L96.0928 131.611L97.8619 130.396ZM105.599 120.677L103.68 119.739L102.764 121.679L104.682 122.595L105.599 120.677ZM107.091 114.475L104.959 114.283L104.767 116.414L106.899 116.606L107.091 114.475ZM116.575 85.254L118.429 84.2096C117.304 82.2137 115.754 80.4893 113.89 79.1583L112.653 80.8847C114.265 82.0361 115.604 83.5278 116.575 85.254ZM83.8162 96.6354L84.9458 94.8238L79.5534 91.4136L78.4026 93.2039L83.8162 96.6354ZM116.447 98.4471L118.301 99.5341C119.478 97.5873 120.206 95.4031 120.433 93.14L118.301 92.9695C118.083 94.8737 117.45 96.707 116.447 98.3405V98.4471ZM97.5421 102.71L92.1498 99.2996L90.9988 101.09L96.4125 104.436L97.5421 102.71ZM110.735 103.626C108.959 104.503 107.004 104.956 105.023 104.948V107.079C107.328 107.082 109.603 106.557 111.673 105.545L110.735 103.626ZM55.8314 140.371L53.9985 139.284C52.8178 141.267 52.09 143.487 51.8672 145.785L53.9985 145.955C54.1797 143.979 54.8063 142.07 55.8314 140.371ZM88.4838 142.183L87.333 143.994L92.7465 147.404L93.8762 145.614L88.4838 142.183ZM55.7249 153.564L53.8493 154.608C54.9759 156.61 56.534 158.335 58.4104 159.66L59.6467 157.933C58.0298 156.788 56.6897 155.295 55.7249 153.564ZM74.7792 136.002L80.1928 139.412L81.3225 137.621L75.8876 134.275L74.7792 136.002ZM61.5861 135.085C63.3639 134.213 65.3181 133.761 67.2982 133.764V131.632C65.0005 131.632 62.7333 132.157 60.6697 133.167L61.5861 135.085Z" fill="#1F1F1F"/>
</svg>
