<svg width="172" height="239" viewBox="0 0 172 239" fill="none" xmlns="http://www.w3.org/2000/svg">
<path d="M160.462 0H11.2671C5.38155 0 0.610352 4.7712 0.610352 10.6568V228.055C0.610352 233.941 5.38155 238.712 11.2671 238.712H160.462C166.348 238.712 171.119 233.941 171.119 228.055V10.6568C171.119 4.7712 166.348 0 160.462 0Z" fill="#F9F1DF"/>
<path d="M32.7089 49.1489C32.1067 48.5554 31.295 48.2226 30.4495 48.2226C29.604 48.2226 28.7923 48.5554 28.1902 49.1489L26.8263 50.5343C27.1184 49.578 27.681 48.7268 28.4462 48.0832C28.8927 47.6361 29.1967 47.0667 29.3198 46.4469C29.443 45.8271 29.3795 45.1848 29.1377 44.6009C28.896 44.0171 28.4867 43.518 27.9615 43.1666C27.4362 42.8153 26.8187 42.6275 26.1868 42.627C25.3396 42.63 24.5277 42.967 23.9274 43.5648C23.6284 43.8601 23.3912 44.2119 23.2291 44.5997C23.0671 44.9876 22.9838 45.4037 22.9838 45.824C22.9838 46.2443 23.0671 46.6604 23.2291 47.0482C23.3912 47.436 23.6284 47.7878 23.9274 48.0832C24.6927 48.7268 25.2553 49.578 25.5473 50.5343L24.1835 49.1489C23.7353 48.7044 23.1654 48.4025 22.5459 48.2813C21.9265 48.1601 21.2852 48.2249 20.7026 48.4676C20.1199 48.7104 19.622 49.1202 19.2719 49.6453C18.9217 50.1705 18.7349 50.7876 18.7349 51.4188C18.7349 52.05 18.9217 52.6671 19.2719 53.1922C19.622 53.7174 20.1199 54.1272 20.7026 54.37C21.2852 54.6127 21.9265 54.6775 22.5459 54.5563C23.1654 54.4351 23.7353 54.1332 24.1835 53.6887L25.7606 52.0902C25.8287 53.0099 25.7128 53.934 25.4201 54.8086C25.1273 55.6832 24.6635 56.4907 24.0554 57.1841V57.6956H28.3182V57.1841C27.0959 55.7873 26.4752 53.9639 26.5916 52.1115V51.9836L28.1691 53.5821C28.4672 53.8788 28.8206 54.1139 29.2095 54.2739C29.5985 54.4339 30.0152 54.5158 30.4357 54.5148C30.8563 54.5138 31.2725 54.43 31.6606 54.2681C32.0488 54.1063 32.4015 53.8696 32.6982 53.5715C32.9949 53.2734 33.2297 52.9198 33.3898 52.5308C33.5498 52.1419 33.6317 51.7253 33.6307 51.3047C33.6297 50.8841 33.5459 50.4679 33.384 50.0797C33.2222 49.6915 32.9856 49.339 32.6875 49.0423L32.7089 49.1489Z" fill="#1F1F1F"/>
<path d="M139.021 189.563C139.623 190.157 140.435 190.49 141.28 190.49C142.126 190.49 142.938 190.157 143.54 189.563L144.904 188.178C144.612 189.134 144.049 189.985 143.284 190.629C142.837 191.076 142.533 191.646 142.41 192.265C142.287 192.885 142.35 193.527 142.592 194.111C142.834 194.695 143.243 195.194 143.768 195.546C144.294 195.897 144.911 196.085 145.543 196.085C146.39 196.082 147.202 195.745 147.802 195.147C148.101 194.852 148.339 194.5 148.501 194.112C148.663 193.725 148.746 193.309 148.746 192.888C148.746 192.468 148.663 192.052 148.501 191.664C148.339 191.276 148.101 190.924 147.802 190.629C147.037 189.985 146.475 189.134 146.183 188.178L147.546 189.563C147.995 190.008 148.565 190.31 149.184 190.431C149.803 190.552 150.445 190.487 151.027 190.245C151.61 190.002 152.108 189.592 152.458 189.067C152.808 188.542 152.995 187.925 152.995 187.293C152.995 186.662 152.808 186.045 152.458 185.52C152.108 184.995 151.61 184.585 151.027 184.342C150.445 184.1 149.803 184.035 149.184 184.156C148.565 184.277 147.995 184.579 147.546 185.024L145.969 186.622C145.901 185.702 146.017 184.778 146.31 183.904C146.603 183.029 147.066 182.222 147.674 181.528V181.017H143.412V181.528C144.634 182.925 145.255 184.748 145.138 186.601V186.729L143.561 185.13C143.263 184.833 142.909 184.598 142.52 184.438C142.131 184.278 141.715 184.196 141.294 184.197C140.445 184.199 139.631 184.539 139.032 185.141C138.433 185.743 138.097 186.558 138.099 187.408C138.101 188.257 138.44 189.071 139.042 189.67L139.021 189.563Z" fill="#1F1F1F"/>
<path d="M26.1864 34.8054V36.2334H17.661V34.8054L19.6006 34.4217C19.7832 34.3925 19.9534 34.3111 20.0908 34.1873C20.2028 34.0487 20.263 33.8753 20.2612 33.6971V19.4809C20.2681 19.2954 20.2076 19.1137 20.0908 18.9694C19.9705 18.8338 19.8026 18.7498 19.622 18.735L17.661 18.33V16.8594H26.1864V18.33L24.2042 18.735C24.1172 18.7403 24.0326 18.764 23.9554 18.8044C23.8783 18.8448 23.8105 18.901 23.7567 18.9694C23.6398 19.1137 23.5793 19.2954 23.5862 19.4809V27.2817L30.8753 18.7563L28.744 18.33V16.8594H35.7775V18.33L33.9446 18.735C33.7938 18.7549 33.6485 18.8057 33.5182 18.8842C33.3728 18.9495 33.2424 19.0438 33.1347 19.1612L28.3178 24.5109C28.7637 25.0466 29.1764 25.6089 29.5539 26.1947C29.9375 26.8199 30.3851 27.5659 30.8966 28.4326L33.8806 33.5479C34.0178 33.7677 34.1747 33.9746 34.3494 34.166C34.5413 34.319 34.7686 34.4216 35.0103 34.4644L36.3104 34.8054V36.2334H31.8772C31.5575 36.2334 31.2377 35.999 30.8966 35.5087C30.469 34.8968 30.0846 34.2558 29.7459 33.5905C29.7459 33.5905 27.1455 28.6884 26.8897 28.2408C26.6339 27.7932 26.3782 27.3456 26.1224 26.962L23.6713 29.7328V33.7184C23.6657 33.8973 23.7266 34.0719 23.842 34.2086C23.9735 34.3409 24.1466 34.4237 24.3322 34.4431L26.1864 34.8054Z" fill="#1F1F1F"/>
<path d="M145.542 203.907V202.479H154.068V203.907L152.128 204.291C151.952 204.32 151.789 204.402 151.659 204.525C151.599 204.591 151.553 204.669 151.524 204.753C151.495 204.837 151.483 204.926 151.489 205.015V219.231C151.476 219.414 151.529 219.596 151.638 219.743C151.758 219.879 151.926 219.963 152.107 219.977L154.068 220.382V221.853H145.542V220.382L147.503 219.977C147.593 219.972 147.681 219.949 147.762 219.909C147.842 219.868 147.914 219.812 147.972 219.743C148.081 219.596 148.134 219.414 148.121 219.231V211.431L140.832 219.956L142.963 220.382V221.853H135.93V220.382L137.763 219.977C137.919 219.954 138.071 219.903 138.21 219.828C138.346 219.757 138.468 219.663 138.573 219.551L143.39 214.201C142.937 213.666 142.517 213.104 142.132 212.518C141.748 211.9 141.301 211.154 140.811 210.386L137.805 205.271C137.675 205.046 137.518 204.839 137.337 204.653C137.15 204.504 136.931 204.401 136.697 204.355L135.376 204.014V202.479H139.83C140.128 202.479 140.448 202.713 140.789 203.204C141.233 203.809 141.625 204.451 141.961 205.122C141.961 205.122 144.541 210.024 144.796 210.472C145.052 210.919 145.329 211.367 145.585 211.75L148.015 208.98V204.994C148.022 204.905 148.011 204.815 147.981 204.731C147.952 204.646 147.905 204.569 147.844 204.504C147.712 204.372 147.539 204.289 147.354 204.269L145.542 203.907Z" fill="#1F1F1F"/>
<path d="M143.666 36.5108C142.467 35.3134 140.842 34.6408 139.148 34.6408C137.453 34.6408 135.828 35.3134 134.629 36.5108L131.88 39.2602C132.485 37.3524 133.615 35.6535 135.141 34.3581C136.338 33.1592 137.01 31.534 137.01 29.8396C137.01 28.1452 136.338 26.52 135.141 25.3211C133.942 24.1237 132.317 23.4512 130.622 23.4512C128.928 23.4512 127.303 24.1237 126.104 25.3211C124.906 26.52 124.234 28.1452 124.234 29.8396C124.234 31.534 124.906 33.1592 126.104 34.3581C127.642 35.6423 128.775 37.3451 129.365 39.2602L126.615 36.5108C125.721 35.6157 124.582 35.006 123.341 34.7586C122.101 34.5112 120.815 34.6374 119.646 35.1211C118.477 35.6048 117.478 36.4244 116.775 37.4761C116.072 38.5277 115.697 39.7643 115.697 41.0292C115.697 42.2942 116.072 43.5307 116.775 44.5824C117.478 45.6341 118.477 46.4536 119.646 46.9373C120.815 47.4211 122.101 47.5472 123.341 47.2999C124.582 47.0525 125.721 46.4427 126.615 45.5477L129.791 42.3933V42.6278C129.923 44.4686 129.688 46.3173 129.099 48.0664C128.509 49.8154 127.578 51.4298 126.359 52.8156V53.8813H134.885V52.8156C132.448 50.0186 131.215 46.3723 131.453 42.6704C131.453 42.6704 131.453 42.5425 131.453 42.4572L134.608 45.6116C135.82 46.7411 137.423 47.356 139.08 47.3268C140.736 47.2975 142.317 46.6265 143.488 45.455C144.66 44.2835 145.331 42.703 145.36 41.0465C145.389 39.39 144.774 37.7868 143.645 36.5747L143.666 36.5108Z" fill="#1F1F1F"/>
<path d="M54.1493 202.224C52.9504 203.421 51.3253 204.094 49.6309 204.094C47.9364 204.094 46.3113 203.421 45.1124 202.224L42.3629 199.475C42.9715 201.375 44.1014 203.066 45.6239 204.355C46.517 205.25 47.125 206.388 47.3712 207.628C47.6175 208.868 47.491 210.152 47.0075 211.32C46.524 212.488 45.7052 213.486 44.6547 214.189C43.6043 214.891 42.3692 215.267 41.1054 215.268C39.8354 215.275 38.5921 214.904 37.5338 214.202C36.4754 213.5 35.65 212.499 35.163 211.326C34.676 210.153 34.5492 208.862 34.799 207.616C35.0489 206.371 35.6639 205.228 36.5656 204.334C38.1042 203.059 39.2375 201.363 39.8267 199.453L37.0771 202.203C36.182 203.095 35.0428 203.702 33.8031 203.946C32.5634 204.191 31.2788 204.063 30.1117 203.579C28.9447 203.094 27.9472 202.275 27.2456 201.224C26.544 200.173 26.1696 198.937 26.1696 197.674C26.1696 196.41 26.544 195.175 27.2456 194.124C27.9472 193.073 28.9447 192.253 30.1117 191.768C31.2788 191.284 32.5634 191.156 33.8031 191.401C35.0428 191.646 36.182 192.252 37.0771 193.144L40.2528 196.32V196.086C40.3868 194.248 40.1524 192.402 39.5631 190.656C38.9738 188.91 38.0417 187.3 36.8214 185.919V184.854H45.3468V185.919C42.9113 188.708 41.6778 192.348 41.9154 196.043C41.9154 196.043 41.9154 196.192 41.9154 196.278L45.0697 193.102C46.2709 191.903 47.899 191.231 49.5957 191.233C51.2925 191.235 52.9189 191.911 54.1173 193.113C55.3157 194.314 55.9879 195.942 55.9859 197.639C55.9839 199.335 55.3079 200.962 54.1067 202.16L54.1493 202.224Z" fill="#1F1F1F"/>
<path d="M154.068 170.508H151.936V19.1821H47.5V17.0508H153.002L154.068 18.1165V170.508ZM17.661 68.2033V220.595L18.7267 221.661H124.229V219.53H19.7924V68.2033H17.661Z" fill="#1F1F1F"/>
<path d="M98.6528 210.237C95.354 210.269 92.1352 209.222 89.4878 207.253C89.9993 206.401 90.5537 205.591 91.0226 204.653L89.0617 203.758C88.1334 205.99 86.699 207.976 84.8718 209.559C83.0446 211.142 80.8747 212.279 78.5329 212.88C76.6979 211.316 75.2529 209.346 74.3131 207.126C73.3733 204.906 72.9645 202.498 73.1192 200.092H70.9878C70.9724 201.091 71.0436 202.089 71.2009 203.076C67.9989 204.509 64.4011 204.795 61.0129 203.886C63.4616 201.312 65.2467 198.181 66.2136 194.763C75.9965 193.954 81.3462 193.165 95.4984 200.007C95.9625 203.571 97.0291 207.03 98.6528 210.237Z" fill="#CBBD9F"/>
<path d="M134.29 169.357C133.157 168.094 132.131 166.739 131.221 165.307L129.302 165.734C128.729 168.798 127.508 171.704 125.721 174.259C123.903 171.717 122.666 168.807 122.098 165.734L120.18 165.307C119.274 166.729 118.247 168.069 117.111 169.314C117.253 167.413 117.88 165.58 118.932 163.991C119.984 162.401 121.427 161.108 123.121 160.235L122.226 158.274C121.62 158.588 121.036 158.944 120.478 159.34C120.42 158.64 120.499 157.935 120.713 157.267C120.926 156.598 121.269 155.977 121.723 155.441C122.176 154.904 122.73 154.463 123.354 154.141C123.978 153.818 124.66 153.622 125.359 153.564C126.059 153.505 126.763 153.585 127.432 153.798C128.101 154.011 128.722 154.355 129.258 154.808C129.794 155.261 130.236 155.815 130.558 156.439C130.88 157.063 131.076 157.745 131.135 158.444C131.114 158.746 131.071 159.045 131.007 159.34C130.45 158.944 129.866 158.588 129.26 158.274L128.364 160.235C130.053 161.118 131.485 162.421 132.523 164.019C133.561 165.617 134.169 167.455 134.29 169.357Z" fill="#CBBD9F"/>
<path d="M128.108 136.279V151.326C126.552 150.761 124.848 150.761 123.292 151.326V136.193L128.108 136.279Z" fill="#CBBD9F"/>
<path d="M119.625 141.096C114.143 144.489 109.041 148.462 104.408 152.946C102.869 152.499 101.278 152.255 99.676 152.222C104.618 147.473 110.08 143.297 115.96 139.774C117.097 140.421 118.337 140.868 119.625 141.096Z" fill="#2D6B67"/>
<path d="M81.3884 192.419C80.5358 192.292 79.6832 192.164 78.8732 192.078C80.0242 188.029 77.8928 183.809 73.0334 180.953C68.5149 178.267 62.9733 174.132 63.6553 167.738C65.7867 176.008 75.6335 177.138 79.8963 182.956C80.8513 184.315 81.4825 185.874 81.7412 187.515C81.9998 189.155 81.8791 190.833 81.3884 192.419Z" fill="#CBBD9F"/>
<path d="M76.6991 191.822C75.7187 191.822 74.7383 191.822 73.8432 191.822C75.122 184.554 62.8881 182.699 63.0587 174.387C65.2245 177.911 68.3027 180.783 71.9676 182.699C76.0598 185.214 77.8501 188.71 76.6991 191.822Z" fill="#CBBD9F"/>
<path d="M71.6267 192.035C70.8595 192.035 70.0496 192.162 69.325 192.248C66.5116 190.372 63.9326 184.319 62.9309 180.696C66.4476 185.427 72.9056 187.708 71.6267 192.035Z" fill="#CBBD9F"/>
<path d="M113.998 138.538C107.634 142.433 101.766 147.085 96.5214 152.392C90.6098 153.213 85.0672 155.745 80.576 159.676C76.0848 163.607 72.8409 168.765 71.2435 174.516C69.2805 173.382 67.5458 171.894 66.1282 170.125C65.3715 169.189 64.8555 168.082 64.6252 166.9C64.3948 165.719 64.4572 164.499 64.8068 163.347C77.163 149.615 93.3937 139.954 111.356 135.64C112.125 136.702 113.011 137.674 113.998 138.538Z" fill="#C93112"/>
<path d="M56.0257 105.289C50.064 109.383 45.1744 114.85 41.7691 121.231C38.3639 127.611 36.5428 134.716 36.4597 141.948C36.4597 152.306 44.9853 160.363 56.0257 160.363C67.0661 160.363 75.5916 152.306 75.5916 141.948C75.5157 134.715 73.6977 127.607 70.2919 121.225C66.886 114.844 61.9924 109.377 56.0257 105.289ZM55.3438 111.683H56.7076C61.7325 115.924 65.653 121.322 68.1319 127.412L66.1283 128.179C63.9184 122.698 60.459 117.808 56.0257 113.899C51.5923 117.808 48.133 122.698 45.9231 128.179L43.9195 127.412C46.3981 121.357 50.3028 115.99 55.3011 111.768L55.3438 111.683ZM42.9818 142.502L40.8504 142.886C40.3134 139.95 40.6088 136.923 41.703 134.147L43.6637 134.957C42.6896 137.377 42.4379 140.027 42.9391 142.587L42.9818 142.502ZM47.5429 152.818C45.7877 151.678 44.2916 150.182 43.1522 148.427L44.9427 147.276C45.9383 148.784 47.2287 150.075 48.7363 151.07L47.5429 152.818ZM53.0844 155.077L53.4682 152.946C55.1421 153.284 56.8669 153.284 58.5408 152.946L58.967 155.077C57.0192 155.516 55.0013 155.545 53.0417 155.162L53.0844 155.077ZM56.0257 149.195C54.8305 149.192 53.6476 148.954 52.5445 148.494C51.4414 148.034 50.4396 147.361 49.5965 146.514C48.7534 145.667 48.0854 144.662 47.6306 143.557C47.1758 142.451 46.9433 141.267 46.9461 140.072H49.0774C49.0774 141.915 49.8095 143.682 51.1125 144.985C52.4156 146.288 54.1829 147.021 56.0257 147.021C57.8685 147.021 59.6358 146.288 60.9388 144.985C62.2419 143.682 62.9739 141.915 62.9739 140.072H65.1053C65.1081 141.267 64.8755 142.451 64.4208 143.557C63.966 144.662 63.298 145.667 62.4549 146.514C61.6118 147.361 60.6099 148.034 59.5068 148.494C58.4037 148.954 57.2208 149.192 56.0257 149.195ZM64.5511 152.946L63.3574 151.198C64.8701 150.208 66.1618 148.917 67.1513 147.404L68.9418 148.555C67.7713 150.273 66.2804 151.749 64.5511 152.903V152.946ZM69.1122 142.63C69.579 140.097 69.3281 137.483 68.3876 135.085L70.3483 134.275C71.4448 137.051 71.7403 140.078 71.2009 143.014L69.1122 142.63Z" fill="#CBBD9F"/>
<path d="M100.784 125.963C92.5149 128.963 84.7089 133.11 77.5944 138.283C77.445 136.131 77.1316 133.993 76.6567 131.889L91.832 109.211C93.6184 115.357 96.6671 121.063 100.784 125.963Z" fill="#2D6B67"/>
<path d="M95.2858 106.568L80.153 129.288C78.3379 123.167 75.2918 117.481 71.2014 112.578C79.484 109.572 87.2931 105.395 94.3906 100.174C94.5443 102.323 94.8434 104.459 95.2858 106.568Z" fill="#C93112"/>
<path d="M115.874 78.0933C104.919 78.0933 96.3083 86.1924 96.3083 96.5082C96.3772 103.743 98.192 110.853 101.598 117.236C105.005 123.618 109.902 129.084 115.874 133.167C121.855 129.09 126.762 123.627 130.176 117.244C133.59 110.86 135.411 103.747 135.483 96.5082C135.483 86.1924 126.872 78.0933 115.874 78.0933ZM124.399 85.553C126.166 86.679 127.664 88.1775 128.79 89.9436L127.042 91.1372C126.053 89.6245 124.761 88.3328 123.249 87.3433L124.399 85.553ZM118.901 83.2938L118.475 85.4251C116.797 85.1269 115.08 85.1269 113.402 85.4251L112.975 83.2938C114.922 82.9577 116.912 82.9577 118.858 83.2938H118.901ZM115.917 89.3468C117.112 89.344 118.296 89.5766 119.401 90.0314C120.506 90.4862 121.511 91.1542 122.358 91.9973C123.205 92.8404 123.878 93.8422 124.338 94.9453C124.798 96.0484 125.036 97.2313 125.039 98.4264H122.908C122.908 96.578 122.173 94.8052 120.866 93.4982C119.559 92.1912 117.786 91.4569 115.938 91.4569C114.09 91.4569 112.317 92.1912 111.01 93.4982C109.703 94.8052 108.968 96.578 108.968 98.4264H106.837C106.837 96.0257 107.788 93.7227 109.482 92.0212C111.175 90.3197 113.473 89.3581 115.874 89.3468H115.917ZM107.391 85.553L108.542 87.3433C107.035 88.3389 105.744 89.6295 104.748 91.1372L103.001 89.9436C104.153 88.184 105.663 86.6877 107.434 85.553H107.391ZM101.594 104.224C100.456 101.458 100.16 98.4184 100.741 95.4851L102.873 95.9114C102.377 98.4293 102.629 101.037 103.597 103.414L101.594 104.224ZM116.514 126.731H115.107C110.094 122.488 106.188 117.09 103.725 111.001L105.686 110.191C107.924 115.67 111.378 120.568 115.789 124.514C120.224 120.581 123.695 115.68 125.934 110.191L127.895 111.001C125.442 117.073 121.569 122.467 116.599 126.731H116.514ZM130.069 104.224L128.108 103.414C129.078 101.038 129.33 98.4293 128.833 95.9114L130.964 95.4851C131.569 98.4137 131.287 101.456 130.154 104.224H130.069Z" fill="#CBBD9F"/>
<path d="M107.178 75.1092C94.8385 88.8612 78.6011 98.5263 60.6295 102.817C59.8274 101.767 58.8964 100.821 57.8586 100.003C64.2674 96.0837 70.1787 91.4034 75.4637 86.0644C81.3859 85.2587 86.9415 82.7332 91.4423 78.8007C95.9431 74.8681 99.1913 69.7015 100.784 63.9409C102.76 65.0195 104.511 66.4664 105.942 68.2036C106.695 69.1668 107.202 70.2995 107.417 71.503C107.633 72.7066 107.551 73.9446 107.178 75.1092Z" fill="#2D6B67"/>
<path d="M72.2237 86.2349C67.3111 90.9818 61.8771 95.1574 56.0254 98.682C54.8592 98.0656 53.6102 97.6206 52.3169 97.3606C57.8149 93.9704 62.9313 89.9974 67.5775 85.5103C69.0901 85.944 70.6508 86.1875 72.2237 86.2349Z" fill="#C93112"/>
<path d="M48.5656 87.0444V102.177H43.7914V87.0444C45.3325 87.6102 47.0245 87.6102 48.5656 87.0444Z" fill="#CBBD9F"/>
<path d="M54.7468 69.1415C54.57 70.3206 54.2699 71.4779 53.8516 72.5943C53.4201 73.8263 52.7501 74.9611 51.8797 75.9339C51.0093 76.9067 49.9555 77.6984 48.7789 78.2637L49.6315 80.1819C50.26 79.8996 50.8595 79.557 51.4218 79.1589C51.5404 79.9161 51.4937 80.6899 51.2847 81.4273C51.0757 82.1646 50.7097 82.848 50.2115 83.4303C49.7132 84.0127 49.0947 84.4802 48.3986 84.8008C47.7024 85.1213 46.9451 85.2873 46.1788 85.2873C45.4124 85.2873 44.6551 85.1213 43.9589 84.8008C43.2628 84.4802 42.6443 84.0127 42.146 83.4303C41.6478 82.848 41.2818 82.1646 41.0728 81.4273C40.8638 80.6899 40.8171 79.9161 40.9357 79.1589C41.4835 79.5561 42.0688 79.8987 42.6833 80.1819L43.5786 78.2637C41.8946 77.3662 40.462 76.0611 39.4121 74.4676C38.3622 72.8741 37.7282 71.043 37.568 69.1415C38.7177 70.3752 39.7457 71.7171 40.6373 73.1485L42.598 72.7222C43.1663 69.6565 44.3876 66.7489 46.1788 64.1968C47.9699 66.7489 49.1912 69.6565 49.7595 72.7222L51.6776 73.1485C52.5987 71.7378 53.6248 70.3984 54.7468 69.1415Z" fill="#CBBD9F"/>
<path d="M108.926 57.8026C105.26 52.8365 98.9724 50.7052 100.23 46.4211C101.04 46.4211 101.807 46.2933 102.532 46.208C105.345 48.0836 107.967 54.2006 108.926 57.8026Z" fill="#CBBD9F"/>
<path d="M108.841 63.9405C106.636 60.4601 103.566 57.6108 99.9317 55.6708C95.7969 53.1985 94.0066 49.703 95.2002 46.4634C96.1503 46.5484 97.106 46.5484 98.0561 46.4634C96.7133 53.71 108.926 55.7774 108.841 63.9405Z" fill="#CBBD9F"/>
<path d="M108.201 70.7613C106.069 62.4277 96.3505 61.426 92.0025 55.5008C91.0253 54.1529 90.3775 52.5949 90.111 50.9515C89.8445 49.3081 89.9668 47.6252 90.468 46.0376C91.3632 46.2081 92.2156 46.2934 93.0255 46.3786C91.832 50.4708 93.9633 54.6483 98.8227 57.5469C103.341 60.1898 108.883 64.3673 108.201 70.7613Z" fill="#CBBD9F"/>
<path d="M110.929 34.741C108.49 37.2983 106.719 40.4166 105.771 43.8206C93.8779 45.8027 86.0345 43.1172 76.4434 38.5774C75.9935 34.9694 74.9265 31.4655 73.2891 28.2191C76.6095 28.1751 79.8499 29.2402 82.4967 31.2456C81.9016 32.0602 81.3874 32.9311 80.9619 33.8458L82.8802 34.741C83.8185 32.488 85.2709 30.4857 87.1213 28.8944C88.9717 27.303 91.1689 26.1667 93.5369 25.5762C95.3578 27.1513 96.7929 29.1233 97.7315 31.3405C98.6701 33.5576 99.0872 35.9606 98.9507 38.3643H101.082C101.062 37.3651 100.977 36.3684 100.826 35.3804C104.023 34.024 107.587 33.7985 110.929 34.741Z" fill="#CBBD9F"/>
<path d="M79.8325 51.1523V52.836C79.8382 52.976 79.8161 53.1157 79.7677 53.2472C79.7194 53.3787 79.6458 53.4994 79.5507 53.6023C79.4557 53.7052 79.3413 53.7884 79.2141 53.8471C79.0869 53.9058 78.9492 53.9388 78.8092 53.9443C78.5245 53.9501 78.249 53.844 78.0417 53.6487C77.8345 53.4534 77.7123 53.1845 77.7012 52.9V51.2162C77.7012 50.9336 77.8133 50.6625 78.0131 50.4627C78.213 50.2628 78.4842 50.1505 78.7668 50.1505C79.0495 50.1505 79.3204 50.2628 79.5203 50.4627C79.7202 50.6625 79.8325 50.9336 79.8325 51.2162V51.1523ZM136.463 165.158C137.049 166.704 137.408 168.327 137.528 169.975C137.528 171.979 136.1 172.554 134.715 171.574C133.643 170.667 132.696 169.62 131.901 168.462C131.035 171.477 129.586 174.294 127.639 176.753H125.976C124.024 174.289 122.576 171.464 121.713 168.441C120.52 170.082 118.41 172.938 116.811 171.744C116.558 171.524 116.361 171.247 116.235 170.936C116.109 170.625 116.058 170.288 116.087 169.954C116.209 168.312 116.568 166.697 117.153 165.158C117.734 163.568 118.642 162.116 119.817 160.896C119.299 159.416 119.264 157.81 119.716 156.309C120.167 154.808 121.083 153.489 122.332 152.541V143.269C117.514 146.339 112.997 149.858 108.84 153.777C110.251 154.426 111.53 155.329 112.613 156.441L112.186 158.189C111.004 158.552 109.851 159.001 108.734 159.532C107.545 160.007 106.551 160.869 105.913 161.979C105.275 163.089 105.029 164.382 105.217 165.649C105.451 167.306 105.226 168.996 104.564 170.534C103.902 172.071 102.83 173.397 101.466 174.366C101.973 175.218 102.142 176.228 101.941 177.199C101.74 178.169 101.183 179.029 100.379 179.609L101.828 180.27L102.169 181.975C98.1195 186.238 98.3539 187.175 98.3539 191.545C98.5249 193.538 98.1102 195.538 97.1604 197.299L99.0785 198.195C99.2515 198.279 99.3985 198.409 99.5036 198.57C99.6087 198.732 99.6679 198.919 99.6753 199.111C100.112 203.196 101.397 207.146 103.448 210.706L102.617 212.304C98.2917 212.773 93.9467 211.619 90.4253 209.064C87.9199 212.115 84.4706 214.244 80.6211 215.117L79.7045 214.883C76.6409 212.427 74.4937 209.011 73.6089 205.185C69.4972 206.79 64.9323 206.79 60.8207 205.185L60.4796 203.395C63.1987 200.914 65.1887 197.738 66.2344 194.209L66.4475 193.378C66.4987 193.165 66.614 192.973 66.778 192.828C66.9419 192.683 67.1464 192.592 67.3639 192.568H67.6836C62.3126 186.536 60.224 174.238 55.599 167.652C51.656 162.047 45.7095 160.299 41.1697 154.864C38.1467 151.241 36.501 146.666 36.5232 141.948C36.4649 134.274 38.3805 126.715 42.086 119.995C39.8043 119.877 37.6443 118.929 36.0117 117.331C35.6131 116.843 35.3564 116.255 35.2699 115.631C35.1835 115.007 35.2706 114.371 35.5215 113.793C35.6707 113.473 35.7134 113.58 35.5215 113.473C34.8634 112.927 34.4314 112.156 34.3094 111.309C34.1873 110.462 34.3837 109.601 34.8607 108.891C34.4353 108.277 34.2273 107.539 34.2698 106.794C34.3123 106.048 34.603 105.338 35.0954 104.777C34.8293 104.309 34.7112 103.771 34.7569 103.235C34.8025 102.698 35.0098 102.188 35.3511 101.772C36.7485 100.355 38.6468 99.5434 40.6368 99.5127C40.6368 85.7229 40.6368 85.9786 40.6368 85.936C39.3892 84.992 38.4719 83.6775 38.0164 82.1807C37.5608 80.684 37.5902 79.0814 38.1004 77.6024C36.336 75.6871 35.1597 73.3047 34.7116 70.7394C34.3919 69.3754 34.0084 67.4571 35.0954 66.6685C35.3192 66.5173 35.5789 66.4278 35.8483 66.4091C36.1178 66.3904 36.3873 66.4431 36.6299 66.562C37.9879 67.4551 39.1426 68.6243 40.0187 69.9934C40.8772 66.975 42.3261 64.157 44.2814 61.7025H45.9439C47.9051 64.1611 49.3544 66.9874 50.2066 70.0148C50.9235 69.0005 51.7373 68.0583 52.6364 67.2014C53.0726 66.7556 53.6557 66.483 54.2776 66.4341C54.5655 66.4302 54.8481 66.5109 55.0906 66.6663C55.3331 66.8216 55.5246 67.0447 55.6414 67.3079C55.958 68.4371 55.958 69.6316 55.6414 70.7607C55.1777 73.319 53.9949 75.6921 52.2313 77.6024C52.7505 79.0786 52.7867 80.6817 52.3346 82.1799C51.8825 83.678 50.9656 84.9935 49.7164 85.936V95.2074C54.5344 92.1374 59.0515 88.6193 63.2078 84.6998C61.7938 84.0462 60.5087 83.1438 59.4139 82.0356L59.8617 80.2666C61.9664 79.772 63.9146 78.7611 65.5309 77.3253C66.0822 76.5721 66.4791 75.7174 66.6986 74.8102C66.9181 73.903 66.9559 72.9614 66.81 72.0395C66.6897 70.5056 66.9725 68.9669 67.6305 67.5761C68.2886 66.1853 69.2986 64.9907 70.5609 64.1109C70.056 63.2568 69.8897 62.2444 70.0949 61.2737C70.3001 60.303 70.8619 59.4445 71.6693 58.8678L70.2201 58.207L69.879 56.502C70.6422 55.6873 71.354 54.826 72.0103 53.923C73.2323 52.3318 73.8037 50.3356 73.6089 48.3389C73.3065 45.8866 73.7212 43.3992 74.8025 41.1775L72.8843 40.2823C72.7083 40.2017 72.5588 40.0728 72.4532 39.9105C72.3475 39.7483 72.29 39.5594 72.2874 39.3659C71.8341 35.2774 70.5503 31.3246 68.5149 27.75L69.3461 26.1728C73.6924 25.6851 78.0639 26.8407 81.6014 29.4124C84.0948 26.3587 87.5388 24.2277 91.3843 23.3594L92.3222 23.5938C95.3858 26.0499 97.533 29.466 98.4179 33.2915C102.53 31.6865 107.094 31.6865 111.206 33.2915L111.547 35.0818C108.82 37.5599 106.823 40.7365 105.771 44.268L105.579 45.0992C105.525 45.3106 105.409 45.5009 105.246 45.6453C105.082 45.7897 104.879 45.8817 104.663 45.9091H104.322C109.714 51.9409 111.803 64.2388 116.428 70.8247C120.328 76.3662 126.253 78.1779 130.708 83.4423C133.824 87.0814 135.533 91.7166 135.525 96.5075C135.567 104.189 133.645 111.753 129.941 118.482C133.052 118.865 136.761 120.23 136.782 123.363C136.79 123.918 136.642 124.464 136.356 124.94C137.045 125.476 137.505 126.254 137.643 127.116C137.782 127.978 137.588 128.861 137.102 129.586C137.52 130.202 137.724 130.939 137.682 131.683C137.639 132.426 137.353 133.135 136.868 133.7C137.062 134.088 137.172 134.512 137.19 134.946C137.208 135.379 137.134 135.811 136.973 136.214C136.812 136.617 136.567 136.981 136.255 137.282C135.943 137.584 135.571 137.816 135.162 137.962C133.964 138.558 132.661 138.912 131.326 139.007V152.562C132.575 153.51 133.493 154.828 133.949 156.328C134.404 157.829 134.374 159.435 133.862 160.917C135.008 162.148 135.893 163.598 136.463 165.18V165.158ZM128.619 84.3162C125.018 80.58 120.142 78.335 114.962 78.0271C109.782 77.7191 104.675 79.3706 100.656 82.6537C100.272 82.9734 99.9099 83.3144 99.5476 83.6554C97.827 85.3076 96.4627 87.2946 95.539 89.4939C94.6153 91.6932 94.1517 94.0583 94.1765 96.4436C94.1521 106.563 97.6823 116.369 104.151 124.151C106.907 127.558 110.145 130.545 113.764 133.018C121.05 128.046 126.755 121.084 130.196 112.962C132.31 107.757 133.382 102.189 133.351 96.5715C133.368 92.0437 131.678 87.6757 128.619 84.3375V84.3162ZM79.9603 192.056C80.7915 192.056 81.6439 192.248 82.5391 192.397C83.0147 190.803 83.1181 189.12 82.8409 187.48C82.5638 185.839 81.9136 184.284 80.9406 182.934C76.6779 177.243 66.9589 175.837 64.721 167.865C64.1882 173.769 68.9838 177.904 74.099 180.909C78.2978 183.424 81.2604 187.559 79.9603 192.078V192.056ZM74.9516 191.886C75.8887 191.833 76.8278 191.833 77.7649 191.886C78.0979 190.944 78.1965 189.936 78.0516 188.948C77.9068 187.96 77.5231 187.022 76.9339 186.216C74.8025 183.062 72.0317 182.7 68.0247 179.225C66.4461 177.897 65.1117 176.303 64.0818 174.515C63.9539 182.657 76.2091 184.682 74.9516 191.822V191.886ZM73.2251 174.451C74.8609 168.697 78.1362 163.543 82.6512 159.618C87.1663 155.694 92.7262 153.168 98.6523 152.349C103.9 147.045 109.768 142.393 116.129 138.495C115.102 137.656 114.179 136.697 113.38 135.639C98.6397 139.003 85.0243 146.134 73.8646 156.335C71.4188 158.51 69.0989 160.822 66.9164 163.262C66.5528 164.424 66.4812 165.659 66.708 166.856C66.9347 168.053 67.4528 169.175 68.2165 170.125C69.5988 171.875 71.2978 173.35 73.2251 174.473V174.451ZM91.9171 46.378C91.0859 46.378 90.2334 46.1862 89.3383 46.037C88.8594 47.6311 88.7546 49.3142 89.0318 50.9554C89.309 52.5966 89.9609 54.1519 90.9368 55.5002C95.0929 61.1909 104.918 62.5763 107.156 70.5689C107.689 64.6864 102.894 60.5302 97.7784 57.525C93.6009 55.0739 90.617 51.0244 91.9171 46.3993V46.378ZM96.9258 46.5485C95.988 46.5485 95.1355 46.5485 94.0912 46.5485C93.7684 47.4927 93.6774 48.5006 93.8258 49.4872C93.9742 50.4739 94.3576 51.4105 94.9438 52.2179C97.0751 55.3723 99.8244 55.7347 103.853 59.2088C105.431 60.5372 106.766 62.1313 107.796 63.9191C107.924 55.8199 95.6683 53.7951 96.9258 46.5698V46.5485ZM98.6523 63.9404C97.0196 69.6872 93.7541 74.8367 89.2519 78.7638C84.7497 82.6909 79.2044 85.2268 73.2891 86.0639C68.0418 91.3679 62.1738 96.0195 55.8121 99.9177C56.8337 100.755 57.756 101.706 58.5614 102.752C73.2981 99.4078 86.9096 92.2826 98.0554 82.0782C100.508 79.9099 102.828 77.5968 105.004 75.1513C105.376 73.991 105.454 72.7564 105.231 71.5584C105.008 70.3605 104.49 69.2368 103.725 68.2884C102.314 66.5415 100.594 65.0679 98.6523 63.9404ZM102.723 125.878C98.6492 121.006 95.6236 115.347 93.8354 109.253L78.7455 131.867C79.2088 133.93 79.5221 136.024 79.6832 138.133C86.761 133.021 94.5153 128.918 102.723 125.942V125.878ZM79.8112 140.797C79.9864 143.959 79.4246 147.118 78.17 150.026C88.0136 142.569 99.2332 137.129 111.185 134.019C108.656 132.132 106.327 129.989 104.236 127.625C95.4821 130.714 87.2468 135.112 79.8112 140.669V140.797ZM60.629 104.564C63.1487 106.463 65.4759 108.605 67.5772 110.958C76.3303 107.848 84.5645 103.436 92.0025 97.8716C91.8257 94.7096 92.3876 91.5499 93.6437 88.6428C83.7972 96.0092 72.6026 101.375 60.6927 104.436L60.629 104.564ZM69.1544 112.599C73.2366 117.465 76.263 123.126 78.042 129.224L93.1321 106.568C92.6653 104.462 92.3517 102.325 92.1942 100.173C85.131 105.353 77.3753 109.514 69.1544 112.535V112.599ZM108.35 74.5972C108.073 75.0234 106.41 76.7285 106.069 77.2187C110.191 75.8419 114.606 75.5917 118.857 76.4941C115.142 73.3346 112.369 69.2122 110.844 64.5798C110.826 68.0704 109.971 71.5058 108.35 74.5972ZM101.508 46.2288L99.1425 46.4633C97.885 50.726 104.301 52.9639 107.839 57.7168C107.353 55.8863 106.703 54.1031 105.899 52.3884C104.892 50.0453 103.395 47.945 101.508 46.2288ZM81.9639 41.9661C84.2556 42.7906 86.6068 43.439 88.9972 43.9056C93.8435 44.7265 98.7933 44.7265 103.64 43.9056C104.576 40.4906 106.349 37.3628 108.798 34.8048C105.456 33.8753 101.896 34.1236 98.7163 35.5081C98.8327 36.5267 98.8753 37.5525 98.844 38.5773H96.7127C96.8557 36.1728 96.4416 33.7677 95.5026 31.5496C94.5636 29.3314 93.1252 27.3601 91.2992 25.7891C88.9325 26.3827 86.7369 27.5202 84.8869 29.1112C83.037 30.7022 81.5836 32.7028 80.6424 34.954L78.7242 34.0588C79.1419 33.119 79.6335 32.2139 80.1947 31.352C77.5444 29.4122 74.3353 28.3873 71.0513 28.432C72.7147 31.6863 73.7966 35.2063 74.2484 38.833C76.8912 39.8134 79.4702 40.9857 81.9639 41.9022V41.9661ZM96.734 62.896C93.8492 61.3977 91.2916 59.34 89.2103 56.843C88.0625 55.2579 87.2882 53.4338 86.9449 51.5072C86.6017 49.5805 86.6986 47.6012 87.2283 45.7173C83.6322 44.899 80.1318 43.7061 76.7846 42.1579C76.5741 42.4083 76.4017 42.6884 76.2731 42.9892C76.1143 43.6187 76.1143 44.2778 76.2731 44.9074C76.3145 44.9723 76.3736 45.0241 76.4435 45.0566C76.7823 45.2033 77.1418 45.2968 77.5091 45.3337C79.4265 45.3963 81.3116 45.8458 83.0509 46.6551C83.3165 46.7513 83.533 46.949 83.6529 47.2048C83.7728 47.4606 83.7861 47.7535 83.6901 48.0192C83.585 48.2829 83.3828 48.4963 83.125 48.6152C82.8673 48.7342 82.5736 48.7497 82.3047 48.6586L80.6424 48.0405C78.9374 47.4011 77.147 47.6355 75.8042 47.124C75.8042 51.3867 75.8041 53.177 72.4365 56.9495L76.5928 58.8251C81.1539 60.9565 80.3653 64.7503 81.3457 66.0504C81.6748 66.4993 82.1371 66.8328 82.6669 67.0034C83.1966 67.174 83.7669 67.173 84.2961 67.0005C84.8252 66.8281 85.2863 66.493 85.6139 66.043C85.9414 65.593 86.1185 65.0511 86.1199 64.4945C86.1192 64.1495 86.0402 63.809 85.8889 63.4989C85.7375 63.1888 85.5176 62.9171 85.246 62.7042L86.6527 61.1057C87.3744 61.7503 87.8779 62.6032 88.0936 63.5465C88.3093 64.4898 88.2264 65.4768 87.8566 66.371C87.4867 67.2651 86.8484 68.0223 86.0294 68.5376C85.2104 69.0529 84.2514 69.301 83.2853 69.2475C79.4702 69.1196 74.7597 68.4162 71.925 65.8586C70.8194 66.608 69.9523 67.6592 69.4271 68.8873C68.9018 70.1153 68.7405 71.4684 68.9624 72.7855C69.1968 77.6663 66.831 80.0534 62.2912 81.7585C71.9889 88.8133 92.6844 80.0321 96.734 62.8321V62.896ZM74.6745 65.2618C76.0847 66.0129 77.6129 66.5175 79.193 66.7538C78.1699 64.6224 78.8945 62.2566 75.6335 60.7647L73.9286 59.9974C70.9447 61.2336 71.8185 63.6207 74.6745 65.1979V65.2618ZM50.2066 97.424C51.4925 97.6502 52.7314 98.0896 53.8725 98.7241C59.7289 95.2216 65.17 91.0674 70.0921 86.3409C68.4758 86.3095 66.8707 86.0659 65.3178 85.6163C60.7055 90.0488 55.6407 93.985 50.2066 97.3601V97.424ZM45.1126 85.4245C45.8852 85.4226 46.6482 85.2527 47.3486 84.9266C48.049 84.6005 48.67 84.126 49.1688 83.536C49.6675 82.946 50.0321 82.2546 50.237 81.5098C50.442 80.7649 50.4824 79.9843 50.3557 79.2222C49.8033 79.6241 49.2105 79.9669 48.5868 80.2453L47.6915 78.3057C48.872 77.7481 49.9301 76.9617 50.8045 75.9922C51.6789 75.0226 52.3522 73.8892 52.7855 72.6576C53.198 71.5467 53.498 70.3971 53.6807 69.2262C52.5531 70.4655 51.5333 71.7989 50.6328 73.2118L48.6934 72.8068C48.1263 69.7408 46.9049 66.8329 45.1126 64.2814C43.305 66.8268 42.0756 69.7365 41.5105 72.8068L39.5925 73.2118C38.6725 71.8003 37.6464 70.4608 36.5232 69.2048C36.716 70.3806 37.0157 71.5363 37.4185 72.6576C38.3059 75.138 40.1366 77.1678 42.5124 78.3057L41.6385 80.2453C41.0147 79.9669 40.4219 79.6241 39.8696 79.2222C39.7531 79.9796 39.8012 80.7531 40.0109 81.4901C40.2205 82.2271 40.5867 82.9103 41.0843 83.4929C41.582 84.0755 42.1995 84.544 42.8946 84.8663C43.5898 85.1886 44.3464 85.3572 45.1126 85.3605V85.4245ZM42.7255 87.1509V102.241H47.4997V87.0869C45.9529 87.6196 44.2724 87.6196 42.7255 87.0869V87.1509ZM43.1517 118.034C46.6208 112.437 51.1888 107.601 56.5793 103.818C54.8831 101.572 52.4015 100.05 49.6311 99.5554V103.37L48.5654 104.436H41.6598L40.5942 103.37V101.772C39.2763 101.825 38.0147 102.32 37.0134 103.179C36.9528 103.236 36.9046 103.306 36.8716 103.383C36.8386 103.46 36.8216 103.543 36.8216 103.626C36.8216 103.71 36.8386 103.793 36.8716 103.87C36.9046 103.947 36.9528 104.016 37.0134 104.074C38.143 105.502 41.9796 105.694 43.8125 105.694C44.0952 105.694 44.3662 105.806 44.566 106.006C44.7659 106.206 44.8782 106.477 44.8782 106.759C44.8782 107.042 44.7659 107.313 44.566 107.513C44.3662 107.713 44.0952 107.825 43.8125 107.825C41.3112 107.96 38.815 107.477 36.5445 106.418C36.3594 106.707 36.2917 107.055 36.3551 107.392C36.4185 107.729 36.6083 108.029 36.8856 108.23C38.6478 109.381 40.7306 109.941 42.8322 109.828C43.1148 109.828 43.3858 109.941 43.5857 110.141C43.7855 110.34 43.8979 110.612 43.8979 110.894C43.8979 111.177 43.7855 111.448 43.5857 111.648C43.3858 111.848 43.1148 111.96 42.8322 111.96C41.8471 111.927 40.8648 111.834 39.8909 111.683C38.6777 111.536 37.5085 111.137 36.4592 110.511C36.0969 111.534 37.0773 112.28 38.0577 112.77C39.1628 113.253 40.3337 113.569 41.5318 113.708C41.8093 113.755 42.0577 113.908 42.2247 114.134C42.3916 114.361 42.4642 114.643 42.4271 114.922C42.4063 115.061 42.3585 115.194 42.2861 115.314C42.2137 115.434 42.1182 115.539 42.0054 115.622C41.8925 115.705 41.7645 115.765 41.6284 115.799C41.4923 115.832 41.3509 115.839 41.2123 115.818C39.8924 115.655 38.6013 115.311 37.3758 114.795C37.2927 115.014 37.2687 115.252 37.3061 115.484C37.3435 115.716 37.4409 115.934 37.5889 116.116C39.1953 117.378 41.195 118.035 43.237 117.97L43.1517 118.034ZM43.1517 154.267C46.7534 158.003 51.6287 160.248 56.8091 160.556C61.9895 160.864 67.096 159.213 71.1151 155.93L72.2234 154.928C73.943 153.275 75.3065 151.288 76.2301 149.089C77.1538 146.89 77.6181 144.525 77.5945 142.14C77.6171 132.021 74.0868 122.215 67.6196 114.432C64.924 110.943 61.7365 107.863 58.1565 105.289C50.8314 110.32 45.1232 117.368 41.7239 125.579C39.6123 130.777 38.5407 136.338 38.5695 141.948C38.5377 146.454 40.204 150.807 43.237 154.139L43.1517 154.267ZM63.4209 164.008C63.7193 163.56 65.3606 161.876 65.7016 161.386C61.5796 162.763 57.1646 163.013 52.9135 162.111C56.0892 164.754 58.1779 167.311 60.9274 174.004C60.957 170.468 61.8496 166.992 63.5276 163.88L63.4209 164.008ZM70.2627 192.376L72.6285 192.141C73.886 187.879 67.4492 185.62 63.9324 180.888C64.6394 183.675 65.7603 186.34 67.2575 188.795C68.0751 190.127 69.1297 191.297 70.3692 192.248L70.2627 192.376ZM89.8071 196.639C87.5096 195.809 85.151 195.161 82.7525 194.699C77.9133 193.878 72.9705 193.878 68.1314 194.699C67.1948 198.114 65.422 201.242 62.9734 203.8C66.316 204.719 69.8721 204.471 73.0547 203.097C72.9288 202.079 72.8861 201.052 72.9269 200.027H75.0583C74.9159 202.43 75.3281 204.833 76.2632 207.05C77.1982 209.268 78.6309 211.24 80.4504 212.816C82.8199 212.228 85.0186 211.093 86.8695 209.501C88.7203 207.91 90.1718 205.906 91.1072 203.651L93.0468 204.546C92.6291 205.486 92.1374 206.391 91.5763 207.253C94.2258 209.194 97.4355 210.219 100.72 210.173C99.0497 206.921 97.9674 203.4 97.5226 199.772C94.9863 198.663 92.4927 197.491 89.9138 196.575L89.8071 196.639ZM75.2074 175.645C78.1023 177.137 80.6682 179.195 82.7525 181.698C83.9002 183.283 84.6746 185.107 85.0178 187.034C85.3611 188.96 85.2642 190.94 84.7345 192.824C88.3286 193.648 91.8283 194.841 95.1782 196.383C95.3945 196.129 95.5673 195.841 95.6897 195.53C95.8382 194.907 95.8382 194.257 95.6897 193.633C95.6482 193.568 95.5891 193.517 95.5193 193.484C95.174 193.335 94.807 193.241 94.4322 193.207C92.5235 193.131 90.6482 192.683 88.9121 191.886C88.654 191.784 88.4456 191.586 88.3314 191.333C88.2172 191.08 88.2061 190.793 88.3004 190.532C88.3948 190.271 88.5872 190.057 88.8367 189.936C89.0862 189.814 89.3733 189.795 89.6367 189.882L91.3205 190.5C93.0256 191.14 94.8157 190.905 96.1372 191.417C96.1372 187.154 96.1374 185.385 99.5262 181.591L95.2635 179.716C90.7024 177.584 91.491 173.79 90.5106 172.49C90.1815 172.042 89.719 171.708 89.1892 171.537C88.6594 171.367 88.0894 171.368 87.5602 171.54C87.0311 171.713 86.57 172.048 86.2424 172.498C85.9149 172.948 85.7376 173.49 85.7361 174.046C85.7399 174.391 85.8205 174.73 85.9716 175.04C86.1227 175.35 86.3408 175.622 86.6101 175.837L85.2033 177.435C84.4816 176.791 83.9781 175.938 83.7625 174.994C83.5468 174.051 83.6296 173.064 83.9995 172.17C84.3693 171.276 85.008 170.519 85.8269 170.003C86.6459 169.488 87.6049 169.24 88.571 169.293C92.3648 169.421 97.0963 170.125 99.9311 172.682C101.035 171.931 101.9 170.879 102.425 169.652C102.95 168.424 103.113 167.072 102.894 165.755C102.659 160.896 105.025 158.487 109.565 156.782C99.9524 149.706 79.2143 158.359 75.2074 175.645ZM92.7697 171.787C93.7928 173.918 93.0682 176.284 96.3292 177.776L98.0341 178.543C101.956 176.902 99.1637 172.917 92.6844 171.787H92.7697ZM121.756 141.117C120.476 140.871 119.24 140.433 118.09 139.817C112.229 143.313 106.788 147.467 101.871 152.2C103.487 152.233 105.092 152.477 106.645 152.925C111.232 148.479 116.267 144.522 121.671 141.117H121.756ZM123.397 134.147H130.303L131.369 135.213V136.833C132.691 136.783 133.955 136.278 134.949 135.405C135.009 135.349 135.057 135.281 135.09 135.206C135.123 135.131 135.14 135.05 135.14 134.968C135.14 134.886 135.123 134.805 135.09 134.73C135.057 134.654 135.009 134.587 134.949 134.531C133.82 133.103 129.983 132.911 128.15 132.911C127.868 132.911 127.597 132.799 127.397 132.599C127.197 132.399 127.085 132.128 127.085 131.845C127.085 131.563 127.197 131.292 127.397 131.092C127.597 130.892 127.868 130.78 128.15 130.78C130.652 130.645 133.148 131.128 135.418 132.186C135.603 131.898 135.671 131.55 135.608 131.213C135.544 130.876 135.354 130.576 135.077 130.375C133.311 129.215 131.219 128.655 129.109 128.776C128.827 128.776 128.556 128.664 128.356 128.464C128.156 128.264 128.044 127.993 128.044 127.711C128.044 127.428 128.156 127.157 128.356 126.957C128.556 126.757 128.827 126.645 129.109 126.645C130.095 126.678 131.077 126.77 132.051 126.922C133.258 127.065 134.421 127.465 135.461 128.094C135.844 127.071 134.864 126.325 133.884 125.835C132.778 125.354 131.607 125.038 130.41 124.897C130.132 124.85 129.884 124.697 129.717 124.47C129.55 124.244 129.477 123.961 129.514 123.682C129.556 123.407 129.705 123.158 129.928 122.991C130.151 122.824 130.431 122.75 130.708 122.787C132.032 122.95 133.329 123.286 134.566 123.789C134.649 123.573 134.673 123.338 134.636 123.11C134.598 122.881 134.501 122.667 134.353 122.489C132.781 121.195 130.804 120.493 128.768 120.507C125.293 126.099 120.726 130.934 115.341 134.723C117.04 136.965 119.52 138.487 122.289 138.985V135.149L123.397 134.147ZM124.463 136.279V151.326C126.01 150.793 127.69 150.793 129.237 151.326V136.279H124.463ZM135.44 169.336C135.247 168.16 134.947 167.004 134.544 165.883C133.657 163.403 131.826 161.373 129.45 160.235L130.324 158.296C130.948 158.574 131.541 158.917 132.093 159.319C132.212 158.561 132.165 157.788 131.956 157.05C131.747 156.313 131.381 155.63 130.883 155.047C130.385 154.465 129.766 153.997 129.07 153.677C128.374 153.356 127.616 153.19 126.85 153.19C126.084 153.19 125.326 153.356 124.63 153.677C123.934 153.997 123.316 154.465 122.818 155.047C122.319 155.63 121.953 156.313 121.744 157.05C121.535 157.788 121.488 158.561 121.607 159.319C122.159 158.917 122.752 158.574 123.376 158.296L124.271 160.235C123.091 160.793 122.033 161.579 121.158 162.549C120.284 163.518 119.61 164.652 119.177 165.883C118.767 166.995 118.467 168.144 118.282 169.315C119.398 168.066 120.417 166.733 121.33 165.329L123.27 165.734C123.831 168.802 125.053 171.711 126.85 174.259C128.654 171.712 129.883 168.803 130.452 165.734L132.37 165.329C133.263 166.738 134.26 168.077 135.354 169.336H135.44ZM58.1992 113.921C62.6273 117.847 66.0915 122.741 68.3231 128.222L70.3051 127.433C67.8226 121.339 63.9032 115.935 58.8811 111.683H57.517C52.4949 115.935 48.5756 121.339 46.093 127.433L48.0753 128.222C50.2978 122.765 53.7473 117.893 58.1565 113.985L58.1992 113.921ZM67.3001 139.966H65.1688C65.2212 140.912 65.0798 141.859 64.7538 142.749C64.4277 143.639 63.9237 144.453 63.2724 145.141C62.621 145.83 61.8361 146.378 60.9656 146.753C60.0952 147.127 59.1576 147.321 58.2099 147.321C57.2622 147.321 56.3243 147.127 55.4538 146.753C54.5834 146.378 53.7984 145.83 53.1471 145.141C52.4958 144.453 51.9917 143.639 51.6657 142.749C51.3396 141.859 51.1986 140.912 51.251 139.966H49.1196C49.06 141.197 49.2509 142.427 49.6808 143.581C50.1107 144.736 50.7707 145.792 51.6207 146.684C52.4706 147.576 53.4931 148.286 54.6257 148.772C55.7583 149.257 56.9776 149.507 58.2099 149.507C59.4421 149.507 60.6614 149.257 61.794 148.772C62.9267 148.286 63.9491 147.576 64.7991 146.684C65.649 145.792 66.3087 144.736 66.7387 143.581C67.1686 142.427 67.3597 141.197 67.3001 139.966ZM61.1405 155.098L60.7354 152.967C59.0606 153.297 57.3375 153.297 55.6627 152.967L55.2579 155.098C57.1683 155.492 59.1366 155.514 61.0551 155.162L61.1405 155.098ZM65.5096 151.07L66.6819 152.861C68.4191 151.699 69.911 150.207 71.0727 148.47L69.2821 147.298C68.2753 148.829 66.9618 150.136 65.4245 151.134L65.5096 151.07ZM71.2217 142.545L73.3531 142.95C73.9077 140.015 73.6119 136.983 72.5005 134.211L70.5185 135C71.4546 137.416 71.6691 140.052 71.1364 142.587L71.2217 142.545ZM45.9012 135L43.919 134.211C42.7982 136.981 42.5023 140.016 43.0666 142.95L45.198 142.545C44.6784 140.037 44.8928 137.432 45.8159 135.042L45.9012 135ZM47.116 147.319L45.3257 148.491C46.4816 150.233 47.9746 151.726 49.7164 152.882L50.8885 151.092C49.3618 150.124 48.0491 148.855 47.0309 147.362L47.116 147.319ZM90.4253 96.1665L89.2316 94.3762L87.4627 95.5697L88.6564 97.3387L90.4253 96.1665ZM85.5657 99.3635L84.4787 97.5519L82.6458 98.6389L83.7328 100.472L85.5657 99.3635ZM80.4078 102.305L79.4487 100.408L77.5518 101.367L78.5111 103.264L80.4078 102.305ZM75.2074 104.777L74.3548 102.816L72.3941 103.669L73.2251 105.63L75.2074 104.777ZM69.7723 106.909L69.0691 104.905L67.0657 105.608L67.769 107.612L69.7723 106.909ZM93.2172 188.305C93.3572 188.3 93.4949 188.266 93.6221 188.208C93.7493 188.149 93.8637 188.066 93.9587 187.963C94.0537 187.86 94.1274 187.739 94.1757 187.608C94.2241 187.476 94.2462 187.337 94.2405 187.197C94.2405 186.643 94.2405 186.067 94.2405 185.513C94.2405 185.23 94.1281 184.959 93.9283 184.759C93.7284 184.56 93.4575 184.447 93.1748 184.447C92.8922 184.447 92.6209 184.56 92.4211 184.759C92.2212 184.959 92.1091 185.23 92.1091 185.513C92.1091 186.067 92.1091 186.643 92.1091 187.197C92.0975 187.342 92.1155 187.488 92.1625 187.626C92.2094 187.764 92.2842 187.89 92.3821 187.998C92.4799 188.106 92.5988 188.193 92.7315 188.253C92.8641 188.313 93.0079 188.345 93.1535 188.348L93.2172 188.305ZM113.828 124.364C109.395 120.442 105.93 115.547 103.704 110.063L101.721 110.852C104.21 116.943 108.128 122.345 113.146 126.602H114.509C119.527 122.345 123.445 116.943 125.934 110.852L123.951 110.063C121.719 115.597 118.231 120.536 113.764 124.492L113.828 124.364ZM104.727 98.2979H106.858C106.858 96.4494 107.592 94.6767 108.899 93.3697C110.206 92.0626 111.979 91.3283 113.828 91.3283C115.676 91.3283 117.449 92.0626 118.756 93.3697C120.063 94.6767 120.797 96.4494 120.797 98.2979H122.928C122.928 95.8841 121.97 93.5693 120.263 91.8626C118.556 90.1558 116.241 89.197 113.828 89.197C111.414 89.197 109.099 90.1558 107.392 91.8626C105.686 93.5693 104.727 95.8841 104.727 98.2979ZM110.886 83.1652L111.291 85.2966C112.966 84.9663 114.689 84.9663 116.364 85.2966L116.769 83.1652C114.796 82.837 112.779 82.8804 110.822 83.2931L110.886 83.1652ZM106.624 87.2148L105.451 85.4245C103.714 86.5861 102.222 88.0779 101.061 89.8151L102.851 90.9873C103.813 89.5695 105.035 88.3472 106.453 87.3853L106.624 87.2148ZM100.784 95.9107L98.6523 95.5058C98.0892 98.44 98.3853 101.474 99.5049 104.244L101.487 103.434C100.52 101.05 100.276 98.4334 100.784 95.9107ZM126.104 103.434L128.086 104.244C129.205 101.474 129.501 98.44 128.939 95.5058L126.807 95.9107C127.301 98.4305 127.042 101.04 126.061 103.413L126.104 103.434ZM124.889 91.1365L126.68 89.9642C125.518 88.2271 124.026 86.7353 122.289 85.5737L121.117 87.364C122.6 88.3511 123.868 89.6269 124.847 91.1152L124.889 91.1365ZM84.5427 142.971L83.349 141.202L81.5801 142.374L82.7525 144.165L84.5427 142.971ZM94.3682 137.195L93.4092 135.298L91.491 136.257L92.4713 138.154L94.3682 137.195ZM99.5689 134.829L98.7163 132.868L96.7554 133.721L97.5866 135.682L99.5689 134.829ZM89.3596 139.902L88.2513 138.069L86.4183 139.177L87.5267 140.989L89.3596 139.902ZM104.876 132.911L104.258 130.78L102.126 131.398L102.745 133.529L104.876 132.911Z" fill="#1F1F1F"/>
</svg>
